<svg xmlns="http://www.w3.org/2000/svg" viewBox="0 0 750 500"><g id="freepik--background-complete--inject-74"><polygon points="501.94 462.16 250.06 462.16 268.28 436.95 483.59 436.95 501.94 462.16" style="fill:#ebebeb"></polygon><polygon points="476.6 421.53 272.36 422.4 289 399.33 460.81 398.46 476.6 421.53" style="fill:#ebebeb"></polygon><polygon points="451.28 384.9 295.08 383.9 308.75 363.45 438.49 363.45 451.28 384.9" style="fill:#ebebeb"></polygon><g id="freepik--freepik--high-school-building--inject-76--inject-74"><rect x="60.9" y="53.19" width="628.69" height="176.45" style="fill:#f5f5f5"></rect><rect x="227.39" y="34.38" width="297.44" height="197.03" style="fill:#f5f5f5"></rect><rect x="60.9" y="177.29" width="212.68" height="17.57" style="fill:#ebebeb"></rect><rect x="478.62" y="177.29" width="210.96" height="17.57" style="fill:#ebebeb"></rect><g style="opacity:0.30000000000000004"><rect x="258.95" y="110.08" width="234.23" height="119.56" style="fill:#e0e0e0"></rect></g><g style="opacity:0.30000000000000004"><path d="M341.67,89.19a7.51,7.51,0,0,1-2.38-1l1.19-2.68a7.68,7.68,0,0,0,4.25,1.29c1.39,0,2.1-.34,2.1-1a.89.89,0,0,0-.6-.82,11.57,11.57,0,0,0-1.91-.55,20.16,20.16,0,0,1-2.42-.67,4,4,0,0,1-1.67-1.16,3,3,0,0,1-.7-2.12,3.68,3.68,0,0,1,.64-2.13,4.35,4.35,0,0,1,1.9-1.49,7.69,7.69,0,0,1,3.14-.55,11,11,0,0,1,2.49.28,7.92,7.92,0,0,1,2.17.83l-1.12,2.71a7.53,7.53,0,0,0-3.56-1,3,3,0,0,0-1.58.33.93.93,0,0,0-.5.83.84.84,0,0,0,.59.77,10.61,10.61,0,0,0,1.91.53,17.7,17.7,0,0,1,2.44.68,4.24,4.24,0,0,1,1.67,1.13,3.11,3.11,0,0,1,.71,2.13,3.64,3.64,0,0,1-.65,2.09,4.43,4.43,0,0,1-1.91,1.51,7.91,7.91,0,0,1-3.12.55A12.33,12.33,0,0,1,341.67,89.19Z" style="fill:#e0e0e0"></path><path d="M354.86,88.72a6.27,6.27,0,0,1-2.52-2.38,6.93,6.93,0,0,1,0-6.91,6.27,6.27,0,0,1,2.52-2.38,8.31,8.31,0,0,1,6.81-.23,6.23,6.23,0,0,1,2.36,1.8l-2.32,2.09a3.8,3.8,0,0,0-3-1.5,3.71,3.71,0,0,0-1.9.46A3.22,3.22,0,0,0,355.5,81a4.39,4.39,0,0,0,0,3.81,3.31,3.31,0,0,0,1.27,1.3,4,4,0,0,0,4.94-1L364,87.11a6.13,6.13,0,0,1-2.36,1.8,8.5,8.5,0,0,1-6.81-.19Z" style="fill:#e0e0e0"></path><path d="M377.89,76.46V89.3h-3.64v-5h-5v5h-3.65V76.45h3.65v4.83h5V76.45Z" style="fill:#e0e0e0"></path><path d="M383.28,88.71a6.57,6.57,0,0,1,0-11.65,8.22,8.22,0,0,1,7.33,0,6.57,6.57,0,0,1,2.77,8.88,6.5,6.5,0,0,1-2.77,2.77A8.22,8.22,0,0,1,383.28,88.71Zm5.43-2.61A3.34,3.34,0,0,0,390,84.81,4.19,4.19,0,0,0,390,81a3.37,3.37,0,0,0-1.24-1.3,3.63,3.63,0,0,0-3.53,0,3.42,3.42,0,0,0-1.26,1.3,4.32,4.32,0,0,0,0,3.81,3.32,3.32,0,0,0,1.26,1.29A3.63,3.63,0,0,0,388.71,86.1Z" style="fill:#e0e0e0"></path><path d="M398.82,88.71a6.58,6.58,0,0,1,0-11.65,8.24,8.24,0,0,1,7.34,0,6.58,6.58,0,0,1,0,11.65A8.24,8.24,0,0,1,398.82,88.71Zm5.43-2.61a3.26,3.26,0,0,0,1.26-1.29,4.32,4.32,0,0,0,0-3.81,3.35,3.35,0,0,0-1.26-1.3,3.61,3.61,0,0,0-3.52,0,3.32,3.32,0,0,0-1.25,1.3,4.19,4.19,0,0,0,0,3.81,3.3,3.3,0,0,0,1.25,1.29A3.61,3.61,0,0,0,404.25,86.1Z" style="fill:#e0e0e0"></path><path d="M411.56,76.46h3.63v10h6.14V89.3h-9.77Z" style="fill:#e0e0e0"></path></g><path d="M340.7,88.21a7.47,7.47,0,0,1-2.39-1l1.2-2.68a8.18,8.18,0,0,0,4.24,1.27c1.4,0,2.09-.35,2.09-1a.87.87,0,0,0-.59-.82,11.22,11.22,0,0,0-1.9-.56,18.56,18.56,0,0,1-2.43-.66,4.14,4.14,0,0,1-1.67-1.16,3.11,3.11,0,0,1-.7-2.13,3.64,3.64,0,0,1,.65-2.12,4.37,4.37,0,0,1,1.9-1.5,8,8,0,0,1,3.14-.55,11,11,0,0,1,2.49.28,7.64,7.64,0,0,1,2.17.84l-1.12,2.71a7.44,7.44,0,0,0-3.56-1,3.07,3.07,0,0,0-1.58.33,1,1,0,0,0-.5.84.84.84,0,0,0,.58.77,11.51,11.51,0,0,0,1.91.53,18.6,18.6,0,0,1,2.43.67,4.12,4.12,0,0,1,1.67,1.14,3,3,0,0,1,.72,2.12,3.75,3.75,0,0,1-.65,2.1,4.34,4.34,0,0,1-1.91,1.5,7.91,7.91,0,0,1-3.12.56A11.8,11.8,0,0,1,340.7,88.21Z" style="fill:#e0e0e0"></path><path d="M353.89,87.74a6.37,6.37,0,0,1-2.53-2.38,7,7,0,0,1,0-6.9,6.39,6.39,0,0,1,2.53-2.39,8.23,8.23,0,0,1,6.8-.22,6,6,0,0,1,2.36,1.8l-2.32,2.13a3.87,3.87,0,0,0-4.89-1,3.18,3.18,0,0,0-1.27,1.3,4.26,4.26,0,0,0,0,3.81,3.22,3.22,0,0,0,1.27,1.29,3.79,3.79,0,0,0,4.89-1l2.32,2.1a5.9,5.9,0,0,1-2.36,1.8,7.67,7.67,0,0,1-3.17.63A7.54,7.54,0,0,1,353.89,87.74Z" style="fill:#e0e0e0"></path><path d="M376.9,75.47V88.35h-3.63v-5h-5v5h-3.63V75.47h3.63v4.84h5V75.47Z" style="fill:#e0e0e0"></path><path d="M382.31,87.73a6.56,6.56,0,0,1-2.78-8.87,6.65,6.65,0,0,1,2.78-2.78,8.2,8.2,0,0,1,7.32,0,6.57,6.57,0,0,1,0,11.65A8.13,8.13,0,0,1,382.31,87.73Zm5.42-2.61A3.17,3.17,0,0,0,389,83.83,4.17,4.17,0,0,0,389,80a3.26,3.26,0,0,0-1.25-1.3,3.51,3.51,0,0,0-1.77-.45,3.42,3.42,0,0,0-1.76.45A3.32,3.32,0,0,0,383,80a3.91,3.91,0,0,0-.45,1.9,3.84,3.84,0,0,0,.45,1.91,3.23,3.23,0,0,0,1.25,1.29,3.55,3.55,0,0,0,3.53,0Z" style="fill:#e0e0e0"></path><path d="M397.85,87.73a6.58,6.58,0,0,1,0-11.65,8.22,8.22,0,0,1,7.33,0,6.58,6.58,0,0,1,0,11.65A8.15,8.15,0,0,1,397.85,87.73Zm5.43-2.61a3.23,3.23,0,0,0,1.25-1.29,4.17,4.17,0,0,0,0-3.81,3.32,3.32,0,0,0-1.25-1.3,3.63,3.63,0,0,0-3.53,0A3.32,3.32,0,0,0,398.5,80a4.17,4.17,0,0,0,0,3.81,3.23,3.23,0,0,0,1.25,1.29A3.58,3.58,0,0,0,403.28,85.12Z" style="fill:#e0e0e0"></path><path d="M410.57,75.47h3.64v10h6.15v2.86h-9.79Z" style="fill:#e0e0e0"></path><rect x="217.28" y="24.49" width="313.75" height="9.89" style="fill:#e0e0e0"></rect><rect x="273.58" y="121.3" width="207.89" height="108.35" style="fill:#e0e0e0"></rect><rect x="414.01" y="152.03" width="64.03" height="74.96" style="fill:#ebebeb"></rect><path d="M446,228.6c-.13,0-.25-17.43-.25-38.91s.12-38.91.25-38.91.25,17.42.25,38.91S446.1,228.6,446,228.6Z" style="fill:#e0e0e0"></path><rect x="277.28" y="152.03" width="64.03" height="74.96" style="fill:#ebebeb"></rect><path d="M309.22,228.6c-.13,0-.24-17.43-.24-38.91s.11-38.91.24-38.91.25,17.42.25,38.91S309.33,228.6,309.22,228.6Z" style="fill:#e0e0e0"></path><rect x="303.81" y="182.46" width="3.8" height="14.11" style="fill:#e0e0e0"></rect><rect x="311.44" y="182.46" width="3.8" height="14.11" style="fill:#e0e0e0"></rect><rect x="277.71" y="126.17" width="64.03" height="21.36" style="fill:#ebebeb"></rect><rect x="345.65" y="126.17" width="64.03" height="21.36" style="fill:#ebebeb"></rect><rect x="413.6" y="126.17" width="64.03" height="21.36" style="fill:#ebebeb"></rect><g style="opacity:0.2"><polygon points="478.08 171.87 414.04 200.93 414.04 207.91 478.08 177.46 478.08 171.87" style="fill:#fff"></polygon></g><g style="opacity:0.2"><polygon points="477.58 182.85 413.55 211.91 413.55 216.13 477.58 186.77 477.58 182.85" style="fill:#fff"></polygon></g><rect x="345.65" y="152.03" width="64.03" height="74.96" style="fill:#ebebeb"></rect><g style="opacity:0.2"><polygon points="409.69 152.03 345.65 181.09 345.65 194.86 409.69 163.68 409.69 152.03" style="fill:#fff"></polygon></g><g style="opacity:0.2"><polygon points="409.69 168.34 345.65 197.39 345.65 201.61 409.69 172.26 409.69 168.34" style="fill:#fff"></polygon></g><path d="M377.6,228.6c-.13,0-.25-17.43-.25-38.91s.12-38.91.25-38.91.25,17.42.25,38.91S377.73,228.6,377.6,228.6Z" style="fill:#e0e0e0"></path><path d="M388.94,185.21c-.1-.09,2.74-4.05,6.36-8.86s6.66-8.64,6.74-8.57-2.73,4.05-6.35,8.86S389.06,185.32,388.94,185.21Z" style="fill:#e0e0e0"></path><path d="M386.92,199c-.1-.07,3.21-5,7.42-10.9s7.69-10.7,7.81-10.62-3.21,5-7.42,10.9S387,199.06,386.92,199Z" style="fill:#e0e0e0"></path><path d="M352.08,203.84c-.09-.09,3-3.25,6.92-7.05a95.31,95.31,0,0,1,7.26-6.66c.09.09-3,3.24-6.92,7A91.63,91.63,0,0,1,352.08,203.84Z" style="fill:#e0e0e0"></path><path d="M347.6,216.13a7.45,7.45,0,0,1,.73-.77l2.12-2,7-6.49,6.89-6.6,2.09-2a3.62,3.62,0,0,1,.82-.69,5.47,5.47,0,0,1-.68.83c-.46.51-1.13,1.23-2,2.12-1.7,1.76-4.09,4.15-6.81,6.71s-5.24,4.76-7.1,6.39c-.95.8-1.68,1.43-2.23,1.86A5.19,5.19,0,0,1,347.6,216.13Z" style="fill:#e0e0e0"></path><rect x="372.2" y="182.46" width="3.8" height="14.11" style="fill:#e0e0e0"></rect><rect x="379.82" y="182.46" width="3.8" height="14.11" style="fill:#e0e0e0"></rect><path d="M389.45,131.71a31.34,31.34,0,0,1-2.76,2.1l-6.72,5c-2.63,1.9-5,3.66-6.82,4.85-.89.6-1.62,1.06-2.13,1.37a3.47,3.47,0,0,1-.83.44,31.34,31.34,0,0,1,2.76-2.1c1.82-1.35,4.15-3.07,6.73-5s5-3.66,6.81-4.85c.89-.6,1.62-1.07,2.14-1.37A3.25,3.25,0,0,1,389.45,131.71Z" style="fill:#e0e0e0"></path><path d="M377.9,135.51a61.52,61.52,0,0,1-6.1,4.67,60.73,60.73,0,0,1-6.39,4.27,58.62,58.62,0,0,1,6.1-4.67A59.22,59.22,0,0,1,377.9,135.51Z" style="fill:#e0e0e0"></path><path d="M321.71,128.34a26.32,26.32,0,0,1-2.76,2.09l-6.73,5c-2.63,1.9-5,3.66-6.82,4.85-.88.59-1.62,1.06-2.13,1.38a3.63,3.63,0,0,1-.83.43A29.4,29.4,0,0,1,305.2,140l6.73-5c2.63-1.91,5-3.66,6.82-4.85.88-.6,1.62-1.07,2.13-1.37A3.89,3.89,0,0,1,321.71,128.34Z" style="fill:#e0e0e0"></path><path d="M310.19,132.14a60.13,60.13,0,0,1-6.1,4.68,60.65,60.65,0,0,1-6.39,4.26A119.23,119.23,0,0,1,310.19,132.14Z" style="fill:#e0e0e0"></path><path d="M464.83,130a28.38,28.38,0,0,1-2.77,2.1l-6.72,5c-2.63,1.91-5,3.66-6.81,4.85-.9.6-1.63,1.07-2.14,1.37a3,3,0,0,1-.82.44,28,28,0,0,1,2.75-2.09l6.73-5c2.62-1.9,5-3.66,6.81-4.85.89-.59,1.62-1.06,2.14-1.38A4.35,4.35,0,0,1,464.83,130Z" style="fill:#e0e0e0"></path><path d="M453.3,133.8a59.82,59.82,0,0,1-6.09,4.66,59.22,59.22,0,0,1-6.39,4.27,56.58,56.58,0,0,1,6.1-4.67A60.51,60.51,0,0,1,453.3,133.8Z" style="fill:#e0e0e0"></path><g style="opacity:0.2"><polygon points="332.98 152.03 307.49 152.03 277.71 165.17 277.71 177.29 332.98 152.03 332.98 152.03" style="fill:#fff"></polygon></g><g style="opacity:0.2"><polygon points="341.74 152.43 277.71 181.48 277.71 185.71 341.74 156.35 341.74 152.43" style="fill:#fff"></polygon></g><g style="opacity:0.1"><rect x="241.15" y="141.08" width="17.79" height="7.36" style="fill:#e0e0e0"></rect></g><g style="opacity:0.2"><rect x="232.59" y="132.52" width="17.79" height="7.36" style="fill:#e0e0e0"></rect></g><g style="opacity:0.1"><rect x="257.43" y="92.51" width="17.79" height="7.36" style="fill:#e0e0e0"></rect></g><g style="opacity:0.2"><rect x="266.87" y="82.19" width="17.79" height="7.36" style="fill:#e0e0e0"></rect></g><g style="opacity:0.1"><rect x="200.16" y="76.42" width="17.79" height="7.36" style="fill:#e0e0e0"></rect></g><g style="opacity:0.2"><rect x="209.59" y="66.1" width="17.79" height="7.36" style="fill:#e0e0e0"></rect></g><g style="opacity:0.1"><rect x="112.21" y="102.25" width="17.79" height="7.36" style="fill:#e0e0e0"></rect></g><g style="opacity:0.1"><rect x="89.68" y="74.19" width="17.79" height="7.36" style="fill:#e0e0e0"></rect></g><g style="opacity:0.2"><rect x="121.63" y="91.93" width="17.79" height="7.36" style="fill:#e0e0e0"></rect></g><g style="opacity:0.2"><rect x="126.45" y="211.2" width="17.79" height="7.36" style="fill:#e0e0e0"></rect></g><g style="opacity:0.2"><rect x="190.73" y="86.63" width="17.79" height="7.36" style="fill:#e0e0e0"></rect></g><g style="opacity:0.1"><rect x="649.91" y="72.74" width="17.79" height="7.36" style="fill:#e0e0e0"></rect></g><g style="opacity:0.2"><rect x="659.35" y="62.42" width="17.79" height="7.36" style="fill:#e0e0e0"></rect></g><g style="opacity:0.1"><rect x="561.96" y="98.57" width="17.79" height="7.36" style="fill:#e0e0e0"></rect></g><g style="opacity:0.1"><rect x="539.44" y="70.51" width="17.79" height="7.36" style="fill:#e0e0e0"></rect></g><g style="opacity:0.2"><rect x="571.4" y="88.25" width="17.79" height="7.36" style="fill:#e0e0e0"></rect></g><g style="opacity:0.2"><rect x="637.35" y="101.24" width="17.79" height="7.36" style="fill:#e0e0e0"></rect></g><g style="opacity:0.2"><rect x="341.63" y="60.04" width="17.79" height="7.36" style="fill:#e0e0e0"></rect></g><g style="opacity:0.1"><rect x="350.52" y="49.04" width="17.79" height="7.36" style="fill:#e0e0e0"></rect></g><g style="opacity:0.2"><rect x="507.51" y="106.62" width="17.31" height="7.36" style="fill:#e0e0e0"></rect></g><g style="opacity:0.1"><rect x="516.4" y="95.61" width="8.41" height="7.36" style="fill:#e0e0e0"></rect></g><g style="opacity:0.2"><rect x="449.6" y="88.83" width="17.79" height="7.36" style="fill:#e0e0e0"></rect></g><g style="opacity:0.1"><rect x="459.04" y="77.82" width="17.79" height="7.36" style="fill:#e0e0e0"></rect></g><path d="M227.42,229.41c-.15,0-.25-43.61-.25-97.39s.1-97.41.25-97.41.24,43.6.24,97.41S227.52,229.41,227.42,229.41Z" style="fill:#e0e0e0"></path><rect x="440.56" y="182.46" width="3.8" height="14.11" style="fill:#e0e0e0"></rect><rect x="448.18" y="182.46" width="3.8" height="14.11" style="fill:#e0e0e0"></rect><rect x="149.78" y="114.38" width="69.43" height="96.39" style="fill:#ebebeb"></rect><rect x="156.5" y="121.3" width="56" height="82.55" style="fill:#e0e0e0"></rect><rect x="161.31" y="144.45" width="46.36" height="54.38" style="fill:#ebebeb"></rect><rect x="161.31" y="126.17" width="46.36" height="15.25" style="fill:#ebebeb"></rect><path d="M184.5,200.3c-.14,0-.25-12.31-.25-27.49s.11-27.49.25-27.49.24,12.31.24,27.49S184.63,200.3,184.5,200.3Z" style="fill:#e0e0e0"></path><path d="M179.74,175.71a74.74,74.74,0,0,1-6.23,5.85A74.54,74.54,0,0,1,167,187a71.62,71.62,0,0,1,6.23-5.84A73.22,73.22,0,0,1,179.74,175.71Z" style="fill:#e0e0e0"></path><path d="M179.79,171.82a29.3,29.3,0,0,1-3.87,3.68,30.28,30.28,0,0,1-4.2,3.29,28.59,28.59,0,0,1,3.87-3.67A30.35,30.35,0,0,1,179.79,171.82Z" style="fill:#e0e0e0"></path><path d="M204,158.65a76.66,76.66,0,0,1-6.74,5.86,81.34,81.34,0,0,1-7.06,5.49,80.16,80.16,0,0,1,6.75-5.87A81.09,81.09,0,0,1,204,158.65Z" style="fill:#e0e0e0"></path><path d="M198.08,167.07c.09.1-.51.82-1.33,1.62s-1.59,1.36-1.69,1.26.5-.83,1.34-1.62S198,167,198.08,167.07Z" style="fill:#e0e0e0"></path><rect x="72.64" y="114.38" width="69.43" height="96.39" style="fill:#ebebeb"></rect><rect x="79.35" y="121.3" width="56" height="82.55" style="fill:#e0e0e0"></rect><rect x="84.17" y="144.45" width="46.36" height="54.38" style="fill:#ebebeb"></rect><rect x="84.17" y="126.17" width="46.36" height="15.25" style="fill:#ebebeb"></rect><path d="M107.4,200.3c-.14,0-.24-12.31-.24-27.49s0-27.5.24-27.5.25,12.31.25,27.49S107.49,200.3,107.4,200.3Z" style="fill:#e0e0e0"></path><path d="M102.59,175.71a73.08,73.08,0,0,1-6.22,5.85A71.6,71.6,0,0,1,89.8,187,78.11,78.11,0,0,1,96,181.19,76.45,76.45,0,0,1,102.59,175.71Z" style="fill:#e0e0e0"></path><path d="M102.64,171.82a29.3,29.3,0,0,1-3.87,3.68,29.07,29.07,0,0,1-4.21,3.29,29.27,29.27,0,0,1,3.88-3.67A30.35,30.35,0,0,1,102.64,171.82Z" style="fill:#e0e0e0"></path><path d="M126.87,158.65a76.66,76.66,0,0,1-6.74,5.86,81.59,81.59,0,0,1-7,5.44,83.56,83.56,0,0,1,6.74-5.87A81.48,81.48,0,0,1,126.87,158.65Z" style="fill:#e0e0e0"></path><path d="M120.93,167.07c.1.1-.51.82-1.33,1.62s-1.58,1.36-1.68,1.26.5-.83,1.33-1.62S120.83,167,120.93,167.07Z" style="fill:#e0e0e0"></path><rect x="611.53" y="114.38" width="69.43" height="96.39" style="fill:#ebebeb"></rect><rect x="618.24" y="121.3" width="56" height="82.55" style="fill:#e0e0e0"></rect><rect x="623.06" y="144.45" width="46.36" height="54.38" style="fill:#ebebeb"></rect><rect x="623.06" y="126.17" width="46.36" height="15.25" style="fill:#ebebeb"></rect><path d="M646.24,200.3c-.14,0-.24-12.31-.24-27.49s.1-27.49.24-27.49.25,12.31.25,27.49S646.38,200.3,646.24,200.3Z" style="fill:#e0e0e0"></path><path d="M641.47,175.71a70.2,70.2,0,0,1-6.22,5.85,72.83,72.83,0,0,1-6.56,5.47,74.83,74.83,0,0,1,6.23-5.84A77.88,77.88,0,0,1,641.47,175.71Z" style="fill:#e0e0e0"></path><path d="M641.51,171.82a30,30,0,0,1-3.88,3.68,28,28,0,0,1-4.21,3.29,28.74,28.74,0,0,1,3.89-3.67A29.77,29.77,0,0,1,641.51,171.82Z" style="fill:#e0e0e0"></path><path d="M665.76,158.65a79.67,79.67,0,0,1-6.74,5.86A81.34,81.34,0,0,1,652,170a81.63,81.63,0,0,1,6.74-5.87A79.32,79.32,0,0,1,665.76,158.65Z" style="fill:#e0e0e0"></path><path d="M659.83,167.07c.1.1-.5.82-1.33,1.62s-1.58,1.36-1.68,1.26.51-.83,1.34-1.62S659.72,167,659.83,167.07Z" style="fill:#e0e0e0"></path><rect x="534.38" y="114.38" width="69.43" height="96.39" style="fill:#ebebeb"></rect><rect x="541.1" y="121.3" width="56" height="82.55" style="fill:#e0e0e0"></rect><rect x="545.92" y="144.45" width="46.36" height="54.38" style="fill:#ebebeb"></rect><rect x="545.92" y="126.17" width="46.36" height="15.25" style="fill:#ebebeb"></rect><path d="M569.09,200.3c-.13,0-.24-12.31-.24-27.49s.11-27.49.24-27.49.25,12.31.25,27.49S569.24,200.3,569.09,200.3Z" style="fill:#e0e0e0"></path><path d="M564.33,175.71a71.73,71.73,0,0,1-6.23,5.85,71.34,71.34,0,0,1-6.55,5.47,71.62,71.62,0,0,1,6.23-5.84A73.09,73.09,0,0,1,564.33,175.71Z" style="fill:#e0e0e0"></path><path d="M564.36,171.82a28.77,28.77,0,0,1-3.88,3.68,29.14,29.14,0,0,1-4.2,3.29,29.27,29.27,0,0,1,3.88-3.67A29.77,29.77,0,0,1,564.36,171.82Z" style="fill:#e0e0e0"></path><path d="M588.61,158.65a79.67,79.67,0,0,1-6.74,5.86,81.34,81.34,0,0,1-7.06,5.49,81.63,81.63,0,0,1,6.74-5.87A81.23,81.23,0,0,1,588.61,158.65Z" style="fill:#e0e0e0"></path><path d="M582.68,167.07c.1.1-.5.82-1.33,1.62s-1.59,1.36-1.68,1.26.5-.83,1.34-1.62S582.58,167,582.68,167.07Z" style="fill:#e0e0e0"></path><path d="M156.93,228.45a13.8,13.8,0,0,0-16.32-5.77,10.4,10.4,0,0,0-19,0A10.85,10.85,0,0,0,108.3,226a11.92,11.92,0,0,0-14.79-2.35,8,8,0,0,0-15.17.4c-6-3.44-14.66.85-17.43,7.17H168.36C166.66,227.37,160.32,226,156.93,228.45Z" style="fill:#e0e0e0"></path><path d="M222.18,227a46.12,46.12,0,0,0-5.72-.84,7.1,7.1,0,0,0-3.55-2.91c-1.29-.4-3.88-.46-4.92.38a9,9,0,0,0-17.91,1.13,7.72,7.72,0,0,0-12.55,3.05c-3.44-1.9-8.28,0-10.27,3.41l60.83.2C227.63,228.6,224.72,227.57,222.18,227Z" style="fill:#e0e0e0"></path><path d="M624.09,228.45a13.81,13.81,0,0,0-16.33-5.77,10.39,10.39,0,0,0-19,0,10.85,10.85,0,0,0-13.33,3.3,11.93,11.93,0,0,0-14.8-2.35,8.05,8.05,0,0,0-15.18.4c-6-3.44-14.65.85-17.42,7.17H635.6C633.86,227.37,627.53,226,624.09,228.45Z" style="fill:#e0e0e0"></path><path d="M689.36,227a45.69,45.69,0,0,0-5.71-.84,7.12,7.12,0,0,0-3.56-2.91c-1.28-.4-3.87-.46-4.92.38a9,9,0,0,0-17.92,1.13,7.73,7.73,0,0,0-12.54,3.05c-3.44-1.9-8.28,0-10.27,3.41l60.84.2C694.84,228.6,691.92,227.57,689.36,227Z" style="fill:#e0e0e0"></path><rect x="42.79" y="230.13" width="666.42" height="9.66" style="fill:#e0e0e0"></rect><path d="M54.48,240.09a45.42,45.42,0,0,1,0-9.47A45.42,45.42,0,0,1,54.48,240.09Z" style="fill:#e0e0e0"></path><path d="M87.6,240.09a45.42,45.42,0,0,1,0-9.47A45.42,45.42,0,0,1,87.6,240.09Z" style="fill:#e0e0e0"></path><path d="M120.74,240.09a45.42,45.42,0,0,1,0-9.47A45.42,45.42,0,0,1,120.74,240.09Z" style="fill:#e0e0e0"></path><path d="M153.87,240.09a45.42,45.42,0,0,1,0-9.47A45.42,45.42,0,0,1,153.87,240.09Z" style="fill:#e0e0e0"></path><path d="M187,240.09a45.42,45.42,0,0,1,0-9.47A45.42,45.42,0,0,1,187,240.09Z" style="fill:#e0e0e0"></path><path d="M220.13,240.09a45.42,45.42,0,0,1,0-9.47A45.42,45.42,0,0,1,220.13,240.09Z" style="fill:#e0e0e0"></path><path d="M253.27,240.09a45.42,45.42,0,0,1,0-9.47A45.42,45.42,0,0,1,253.27,240.09Z" style="fill:#e0e0e0"></path><path d="M286.39,240.09a45.42,45.42,0,0,1,0-9.47A44.09,44.09,0,0,1,286.39,240.09Z" style="fill:#e0e0e0"></path><path d="M319.53,240.09a45.42,45.42,0,0,1,0-9.47A45.42,45.42,0,0,1,319.53,240.09Z" style="fill:#e0e0e0"></path><path d="M352.66,240.09a44.09,44.09,0,0,1,0-9.47A45.42,45.42,0,0,1,352.66,240.09Z" style="fill:#e0e0e0"></path><path d="M385.79,240.09a45.42,45.42,0,0,1,0-9.47A45.42,45.42,0,0,1,385.79,240.09Z" style="fill:#e0e0e0"></path><path d="M418.93,240.09a45.42,45.42,0,0,1,0-9.47A45.42,45.42,0,0,1,418.93,240.09Z" style="fill:#e0e0e0"></path><path d="M452.05,240.09a45.42,45.42,0,0,1,0-9.47A45.42,45.42,0,0,1,452.05,240.09Z" style="fill:#e0e0e0"></path><path d="M485.19,240.09a45.42,45.42,0,0,1,0-9.47A45.42,45.42,0,0,1,485.19,240.09Z" style="fill:#e0e0e0"></path><path d="M518.32,240.09a45.42,45.42,0,0,1,0-9.47A45.42,45.42,0,0,1,518.32,240.09Z" style="fill:#e0e0e0"></path><path d="M551.45,240.09a45.42,45.42,0,0,1,0-9.47A45.42,45.42,0,0,1,551.45,240.09Z" style="fill:#e0e0e0"></path><path d="M584.59,240.09a45.42,45.42,0,0,1,0-9.47A45.42,45.42,0,0,1,584.59,240.09Z" style="fill:#e0e0e0"></path><path d="M617.72,240.09a45.42,45.42,0,0,1,0-9.47A45.42,45.42,0,0,1,617.72,240.09Z" style="fill:#e0e0e0"></path><path d="M650.84,240.09a45.42,45.42,0,0,1,0-9.47A45.42,45.42,0,0,1,650.84,240.09Z" style="fill:#e0e0e0"></path><path d="M684,240.09a45.42,45.42,0,0,1,0-9.47A45.42,45.42,0,0,1,684,240.09Z" style="fill:#e0e0e0"></path><rect x="54.48" y="49.55" width="172.91" height="7.32" style="fill:#e0e0e0"></rect><rect x="524.82" y="49.53" width="168.16" height="7.32" style="fill:#e0e0e0"></rect><path d="M524.82,229.55c-.14,0-.25-43.62-.25-97.4s.11-97.41.25-97.41.25,43.6.25,97.41S525,229.55,524.82,229.55Z" style="fill:#e0e0e0"></path></g></g><g id="freepik--Floor--inject-74"><path d="M727,343.49c0,.15-157.16.26-351,.26s-351-.11-351-.26,157.13-.26,351-.26S727,343.35,727,343.49Z" style="fill:#263238"></path><path d="M727,352.1c0,.14-157.16.26-351,.26s-351-.12-351-.26,157.13-.26,351-.26S727,352,727,352.1Z" style="fill:#263238"></path><path d="M60.09,352.16a34.87,34.87,0,0,1,0-8.5,34.87,34.87,0,0,1,0,8.5Z" style="fill:#263238"></path><path d="M98.54,352.16a34.87,34.87,0,0,1,0-8.5,34.87,34.87,0,0,1,0,8.5Z" style="fill:#263238"></path><path d="M137,352.16a34.87,34.87,0,0,1,0-8.5,33.58,33.58,0,0,1,0,8.5Z" style="fill:#263238"></path><path d="M175.43,352.16a34.87,34.87,0,0,1,0-8.5,34.87,34.87,0,0,1,0,8.5Z" style="fill:#263238"></path><path d="M213.88,352.16a34.87,34.87,0,0,1,0-8.5,34.87,34.87,0,0,1,0,8.5Z" style="fill:#263238"></path><path d="M252.33,352.16a34.87,34.87,0,0,1,0-8.5,34.87,34.87,0,0,1,0,8.5Z" style="fill:#263238"></path><path d="M290.77,352.16a34.87,34.87,0,0,1,0-8.5,34.87,34.87,0,0,1,0,8.5Z" style="fill:#263238"></path><path d="M329.22,352.16a34.87,34.87,0,0,1,0-8.5,34.87,34.87,0,0,1,0,8.5Z" style="fill:#263238"></path><path d="M367.67,352.16a34.87,34.87,0,0,1,0-8.5,34.87,34.87,0,0,1,0,8.5Z" style="fill:#263238"></path><path d="M406.12,352.16a34.87,34.87,0,0,1,0-8.5,34.87,34.87,0,0,1,0,8.5Z" style="fill:#263238"></path><path d="M444.56,352.16a34.87,34.87,0,0,1,0-8.5,34.87,34.87,0,0,1,0,8.5Z" style="fill:#263238"></path><path d="M483,352.16a34.87,34.87,0,0,1,0-8.5,34.87,34.87,0,0,1,0,8.5Z" style="fill:#263238"></path><path d="M521.46,352.16a34.87,34.87,0,0,1,0-8.5,34.87,34.87,0,0,1,0,8.5Z" style="fill:#263238"></path><path d="M559.91,352.16a34.87,34.87,0,0,1,0-8.5,34.87,34.87,0,0,1,0,8.5Z" style="fill:#263238"></path><path d="M598.35,352.16a34.87,34.87,0,0,1,0-8.5,34.87,34.87,0,0,1,0,8.5Z" style="fill:#263238"></path><path d="M636.8,352.16a34.87,34.87,0,0,1,0-8.5,34.87,34.87,0,0,1,0,8.5Z" style="fill:#263238"></path><path d="M675.25,352.16a34.87,34.87,0,0,1,0-8.5,34.87,34.87,0,0,1,0,8.5Z" style="fill:#263238"></path><path d="M713.7,352.16a34.87,34.87,0,0,1,0-8.5,34.87,34.87,0,0,1,0,8.5Z" style="fill:#263238"></path></g><g id="freepik--Lines--inject-74"><path d="M631.42,404.19c0,.14-14,.26-31.24.26s-31.25-.12-31.25-.26,14-.26,31.25-.26S631.42,404,631.42,404.19Z" style="fill:#263238"></path><path d="M584.92,413.19c0,.14-7.83.26-17.49.26s-17.5-.12-17.5-.26,7.83-.26,17.5-.26S584.92,413,584.92,413.19Z" style="fill:#263238"></path><path d="M653,398c0,.14-7.83.26-17.5.26S618,398.11,618,398s7.84-.26,17.5-.26S653,397.82,653,398Z" style="fill:#263238"></path><path d="M144.87,404.19c0,.14-14,.26-31.25.26s-31.25-.12-31.25-.26,14-.26,31.25-.26S144.87,404,144.87,404.19Z" style="fill:#263238"></path><path d="M98.37,413.19c0,.14-7.84.26-17.5.26s-17.5-.12-17.5-.26,7.83-.26,17.5-.26S98.37,413,98.37,413.19Z" style="fill:#263238"></path></g><g id="freepik--Plant--inject-74"><path d="M649.5,423.46a6,6,0,0,1,3.5,3.09,10.5,10.5,0,0,1,1,4.66c0,3.09-1.32,6.39-2.88,9.06-2.85-1.92-3.93-5.76-4.35-7.75-.67-3.13,0-9.2,2.74-9.06" style="fill:#2E597B"></path><path d="M654.72,444.94a5.09,5.09,0,0,1,1-5,6.71,6.71,0,0,1,4.75-2.16,2.82,2.82,0,0,1,2.29.71,2.16,2.16,0,0,1,.31,2.18,4.52,4.52,0,0,1-1.42,1.8c-2.06,1.67-4.35,2.91-7,2.47" style="fill:#2E597B"></path><path d="M652.59,454.71a3.13,3.13,0,0,1,0-.64c0-.45.06-1,.1-1.73a17.87,17.87,0,0,1,1.08-5.64,10.92,10.92,0,0,1,3.37-4.61,7.6,7.6,0,0,1,1.5-.9c.19-.09.34-.13.44-.17l.16,0a11.84,11.84,0,0,0-2,1.24,11.26,11.26,0,0,0-3.26,4.57,19.27,19.27,0,0,0-1.13,5.56c-.07.73-.12,1.32-.17,1.73A4.2,4.2,0,0,1,652.59,454.71Z" style="fill:#263238"></path><path d="M649.39,428.13a2,2,0,0,1,.06.27l.15.78c.12.68.28,1.67.47,2.88.38,2.44.87,5.81,1.32,9.55s.77,7.13,1,9.59c.11,1.23.18,2.22.22,2.91,0,.33,0,.59,0,.79v.28a.84.84,0,0,1,0-.27c0-.21-.05-.47-.08-.79-.08-.72-.17-1.7-.29-2.91-.25-2.45-.6-5.84-1.05-9.57s-.9-7.11-1.25-9.55c-.16-1.2-.3-2.18-.4-2.89,0-.33-.08-.59-.1-.79A1.18,1.18,0,0,1,649.39,428.13Z" style="fill:#263238"></path><path d="M650.51,447.35A11.92,11.92,0,0,0,643,439.5c-.91-.3-2.06-.43-2.69.29s-.32,1.86.13,2.71a10.17,10.17,0,0,0,10.06,5.11" style="fill:#2E597B"></path><path d="M643.76,442.35a2.21,2.21,0,0,1,.58.17,5.2,5.2,0,0,1,.65.25,8.63,8.63,0,0,1,.85.39c.3.17.64.34,1,.57a10.94,10.94,0,0,1,1.06.75,13.06,13.06,0,0,1,2.11,2.1,12.82,12.82,0,0,1,1.53,2.56,10.32,10.32,0,0,1,.46,1.22,9.39,9.39,0,0,1,.29,1.09c.09.34.11.65.16.92a5.15,5.15,0,0,1,.07.7,2.3,2.3,0,0,1,0,.6s-.06-.85-.38-2.18c-.09-.33-.18-.7-.32-1.07a9.45,9.45,0,0,0-.47-1.19,13.24,13.24,0,0,0-1.52-2.51,13.49,13.49,0,0,0-2-2.08c-.36-.28-.7-.54-1-.76s-.66-.41-1-.58C644.56,442.65,643.74,442.39,643.76,442.35Z" style="fill:#263238"></path></g><g id="freepik--Bus--inject-74"><rect x="123.98" y="253.49" width="564.43" height="72.82" style="fill:#2E597B"></rect><g style="opacity:0.2"><rect x="123.98" y="253.49" width="564.43" height="72.82"></rect></g><polygon points="706.49 268.81 710.66 268.81 714.05 303.31 709.33 304.16 706.49 268.81" style="fill:#263238"></polygon><path d="M705.52,243.31a6.46,6.46,0,0,0-5.28-5.9l-93.46-17.16-10.68-88H71.29l-7.44,10.52L58.74,307.68l-4.59.39v12H72.42l4.78,4.78h96.69a49.88,49.88,0,0,1,99.69,0H474.1L487,337.82H587.67l2.42-18.75c2.15-16.69,12.57-31.47,28-38.12a50,50,0,0,1,66,27.26h26.11Z" style="fill:#2E597B"></path><rect x="91.89" y="152.68" width="390.96" height="70.63" style="fill:#263238"></rect><rect x="489.54" y="156.49" width="88.36" height="181.16" style="fill:#263238"></rect><rect x="494.47" y="168.9" width="33.6" height="141.71" style="fill:#455a64"></rect><rect x="538.71" y="168.9" width="33.6" height="141.71" style="fill:#455a64"></rect><path d="M533.58,156.49c.14,0,.26,40.26.26,89.9s-.12,89.92-.26,89.92-.27-40.25-.27-89.92S533.43,156.49,533.58,156.49Z" style="fill:#455a64"></path><g style="opacity:0.30000000000000004"><polygon points="494.47 256.06 494.47 275.15 528.07 235.38 528.07 217.03 494.47 256.06" style="fill:#fff"></polygon></g><g style="opacity:0.30000000000000004"><polygon points="538.71 278.79 538.71 297.88 572.31 258.1 572.31 239.75 538.71 278.79" style="fill:#fff"></polygon></g><g style="opacity:0.2"><polygon points="553.1 168.9 538.71 185.62 538.71 204.71 568.96 168.9 553.1 168.9" style="fill:#fff"></polygon></g><g style="opacity:0.30000000000000004"><polygon points="494.46 282.44 494.4 288.7 528.07 249.32 528.07 243.81 494.46 282.44" style="fill:#fff"></polygon></g><g style="opacity:0.2"><rect x="494.47" y="168.9" width="77.84" height="2.98"></rect></g><polygon points="599.2 157.27 587 157.27 587 221.95 606.83 220.07 599.2 157.27" style="fill:#263238"></polygon><polygon points="599.66 161.05 590.67 161.05 590.67 218.17 606.43 216.8 599.66 161.05" style="fill:#455a64"></polygon><rect x="615.13" y="165.68" width="4.05" height="51.25" rx="0.86" style="fill:#263238"></rect><rect x="619.17" y="190.36" width="4.53" height="11.21" style="fill:#263238"></rect><rect x="96.03" y="156.49" width="57.98" height="62.82" style="fill:#455a64"></rect><rect x="160.84" y="156.49" width="57.98" height="62.82" style="fill:#455a64"></rect><rect x="225.64" y="156.49" width="57.98" height="62.82" style="fill:#455a64"></rect><rect x="290.44" y="156.49" width="57.98" height="62.82" style="fill:#455a64"></rect><rect x="355.24" y="156.49" width="57.98" height="62.82" style="fill:#455a64"></rect><rect x="420.04" y="156.49" width="57.98" height="62.82" style="fill:#455a64"></rect><rect x="78.12" y="138.33" width="13.77" height="6.33" rx="1.34" style="fill:#ff9a6c"></rect><rect x="467.9" y="277.1" width="13.77" height="6.33" rx="1.34" style="fill:#ff9a6c"></rect><rect x="573.88" y="138.84" width="13.77" height="6.33" rx="1.34" style="fill:#ff9a6c"></rect><rect x="72.89" y="280.26" width="13.77" height="6.33" rx="1.34" style="fill:#ff9a6c"></rect><path d="M56.45,251H491.39a0,0,0,0,1,0,0V261.6a0,0,0,0,1,0,0H56.45a2.25,2.25,0,0,1-2.25-2.25v-6.12A2.25,2.25,0,0,1,56.45,251Z" style="fill:#263238"></path><path d="M52.29,307.68H87l3.12,2.56h87.41l-2.47,16.44-99.42-.2-5.12-5.59H55.07a2.78,2.78,0,0,1-2.78-2.78Z" style="fill:#263238"></path><rect x="271.87" y="312.21" width="202.92" height="14.1" style="fill:#263238"></rect><polygon points="80.89 322.98 80.89 328.26 158.11 328.26 158.11 321.07 80.89 322.98" style="fill:#263238"></polygon><path d="M113.64,219.31s-1.68-15-2.75-19.25-1.07-6.26,1.38-6,6.87,10.54,7.48,25.21Z" style="fill:#263238"></path><path d="M136.23,219.31s-1.68-15-2.75-19.25-1.06-6.26,1.38-6,6.87,10.54,7.48,25.21Z" style="fill:#263238"></path><g style="opacity:0.1"><path d="M145.81,219.31V171.88H154v47.43Z" style="fill:#fff"></path></g><g style="opacity:0.1"><path d="M162.71,219.31V171.88h56.11v47.43Z" style="fill:#fff"></path></g><g style="opacity:0.1"><path d="M240,219.31V171.88h43.65v47.43Z" style="fill:#fff"></path></g><g style="opacity:0.1"><path d="M304.81,219.31V171.88h43.65v47.43Z" style="fill:#fff"></path></g><g style="opacity:0.1"><path d="M355.24,219.31V171.88h43.65v47.43Z" style="fill:#fff"></path></g><g style="opacity:0.1"><path d="M434,219.31V171.88H477.6v47.43Z" style="fill:#fff"></path></g><path d="M480.78,305.59a1.61,1.61,0,0,1,0-.26c0-.2,0-.44,0-.73,0-.68,0-1.6-.05-2.76,0-2.4-.06-5.8-.1-10l.19.19-28.57.07.26-.26h0v3.58c0,1.18,0,2.35,0,3.49q0,3.45,0,6.65l-.24-.25,20.45.12,5.94.07,1.61,0,.57,0a3.2,3.2,0,0,1-.52,0l-1.55,0-5.89.07-20.61.12H452v-.25c0-2.13,0-4.35,0-6.65v-7.07h0l.26-.26,28.57.07H481v.19c0,4.23-.08,7.66-.1,10.1,0,1.14,0,2.05-.05,2.71A7.62,7.62,0,0,1,480.78,305.59Z" style="fill:#263238"></path><path d="M682.84,305.34l2.82,14.76h5.13v6.62h22.49v-4.57h2.27a3.74,3.74,0,0,0,3.74-3.75v-6.22a3.74,3.74,0,0,0-3.74-3.74H713.4v-3.73Z" style="fill:#263238"></path><polygon points="576.61 244.26 576.15 243.37 623.68 218.53 623.68 153.14 579.49 153.14 579.49 152.14 624.68 152.14 624.68 219.14 624.42 219.28 576.61 244.26" style="fill:#263238"></polygon><rect x="57.3" y="269.42" width="435.25" height="4.62" rx="0.98" style="fill:#263238"></rect><circle cx="223.78" cy="327.43" r="44" transform="translate(-3.52 2.43) rotate(-0.62)" style="fill:#263238"></circle><path d="M179.79,326.68s0,.08,0,.12a44,44,0,0,0,88,1.27V328Z" style="fill:#263238"></path><path d="M192.89,327a30.89,30.89,0,1,0,31.34-30.45A30.88,30.88,0,0,0,192.89,327Z" style="fill:#fafafa"></path><path d="M224.23,296.54A30.91,30.91,0,0,0,192.89,327l61.78.89A30.89,30.89,0,0,0,224.23,296.54Z" style="fill:#e0e0e0"></path><path d="M205,327.16a18.82,18.82,0,1,0,19.09-18.55A18.83,18.83,0,0,0,205,327.16Z" style="fill:#263238"></path><circle cx="637.23" cy="327.43" r="44" transform="translate(-3.49 6.89) rotate(-0.62)" style="fill:#263238"></circle><path d="M593.23,326.68v.12a44,44,0,1,0,88,1.27V328Z" style="fill:#263238"></path><path d="M606.34,327a30.89,30.89,0,1,0,31.33-30.45A30.88,30.88,0,0,0,606.34,327Z" style="fill:#fafafa"></path><path d="M637.67,296.54A30.89,30.89,0,0,0,606.34,327l61.78.89A30.91,30.91,0,0,0,637.67,296.54Z" style="fill:#e0e0e0"></path><path d="M618.41,327.16a18.82,18.82,0,1,0,19.09-18.55A18.82,18.82,0,0,0,618.41,327.16Z" style="fill:#263238"></path><path d="M596.91,134.78c.24-.33,17.58,0,17.58,0s-2.21,5.45-7.66,7.22a21.5,21.5,0,0,1-9.35,1.11Z" style="fill:#263238"></path><path d="M70.28,133.61H54.2s-1.21,6.21,9.7,9Z" style="fill:#263238"></path><path d="M698.94,281.12h2.59a1.91,1.91,0,0,1,1.91,1.91v17.26a1.91,1.91,0,0,1-1.91,1.91h-2.59a0,0,0,0,1,0,0V281.12A0,0,0,0,1,698.94,281.12Z" style="fill:#fff"></path><path d="M177.07,219.31s-1.68-15-2.75-19.25-1.07-6.26,1.37-6,6.88,10.54,7.49,25.21Z" style="fill:#263238"></path><path d="M199.66,219.31s-1.68-15-2.75-19.25-1.07-6.26,1.38-6,6.87,10.54,7.48,25.21Z" style="fill:#263238"></path><path d="M242.65,219.31s-1.68-15-2.75-19.25-1.07-6.26,1.38-6,6.87,10.54,7.48,25.21Z" style="fill:#263238"></path><path d="M265.25,219.31s-1.68-15-2.75-19.25-1.07-6.26,1.37-6,6.88,10.54,7.49,25.21Z" style="fill:#263238"></path><path d="M309,219.31s-1.68-15-2.75-19.25-1.06-6.26,1.38-6,6.87,10.54,7.48,25.21Z" style="fill:#263238"></path><path d="M331.6,219.31s-1.68-15-2.75-19.25-1.07-6.26,1.37-6,6.88,10.54,7.49,25.21Z" style="fill:#263238"></path><path d="M372.74,219.31s-1.68-15-2.75-19.25-1.07-6.26,1.37-6,6.87,10.54,7.49,25.21Z" style="fill:#263238"></path><path d="M395.33,219.31s-1.68-15-2.75-19.25-1.07-6.26,1.37-6,6.88,10.54,7.49,25.21Z" style="fill:#263238"></path><path d="M436.47,219.31s-1.68-15-2.75-19.25-1.07-6.26,1.37-6,6.88,10.54,7.49,25.21Z" style="fill:#263238"></path><path d="M459.06,219.31s-1.68-15-2.75-19.25-1.07-6.26,1.38-6,6.87,10.54,7.48,25.21Z" style="fill:#263238"></path><g style="opacity:0.1"><polygon points="131.09 156.49 96.03 197.45 96.03 212.05 142.34 156.49 131.09 156.49" style="fill:#fff"></polygon></g><g style="opacity:0.1"><polygon points="154.02 156.49 102.45 219.31 110.21 219.31 154.05 164.13 154.02 156.49" style="fill:#fff"></polygon></g><path d="M698,309.67a2.4,2.4,0,0,1,0-.4c0-.29.08-.69.13-1.18.11-1,.25-2.58.38-4.56.25-4,.34-9.71.35-16.82a40.3,40.3,0,0,0-1.21-11.47,23,23,0,0,0-2.48-5.89,17.23,17.23,0,0,0-4.54-5c-3.76-2.77-8.71-3.93-13.75-4.38a144.09,144.09,0,0,0-15.78-.32,177.19,177.19,0,0,0-30.29,3.53c-9.18,1.9-17.18,5-23,9a40.94,40.94,0,0,0-7.22,6.22,35.14,35.14,0,0,0-4.28,5.8,31.26,31.26,0,0,0-2,4.08c-.18.47-.32.84-.43,1.11a1.37,1.37,0,0,1-.16.37,2.54,2.54,0,0,1,.11-.39c.1-.28.22-.65.38-1.13a31.17,31.17,0,0,1,1.95-4.15,34.73,34.73,0,0,1,4.24-5.88,41,41,0,0,1,7.23-6.33c5.85-4.12,13.91-7.28,23.12-9.21a175,175,0,0,1,30.37-3.58,145.44,145.44,0,0,1,15.85.33c5.08.46,10.12,1.64,14,4.5a17.58,17.58,0,0,1,4.64,5.11,23.68,23.68,0,0,1,2.51,6,40,40,0,0,1,1.15,11.58c0,7.11-.19,12.86-.51,16.83-.15,2-.33,3.52-.47,4.56-.08.5-.14.89-.18,1.18S698,309.67,698,309.67Z" style="fill:#263238"></path><g style="opacity:0.30000000000000004"><path d="M672.25,258.75c-24.07-6.7-50.83-1.92-71.8,11.67a44.69,44.69,0,0,0-9.86,8.2,21.78,21.78,0,0,0-5.33,11.51c-.23,2.12.25,4.74,2.24,5.5a3.89,3.89,0,0,0,4.24-1.51,11.44,11.44,0,0,0,1.79-4.45s4.87-13.23,16.9-19.51C635.93,256.86,672.25,258.75,672.25,258.75Z"></path></g><path d="M360,243.63a6.36,6.36,0,0,1-2.14-1l1-2.09a6.26,6.26,0,0,0,1.83.91,6.85,6.85,0,0,0,2.12.34,3.43,3.43,0,0,0,1.75-.35,1.06,1.06,0,0,0,.57-.93.89.89,0,0,0-.34-.72,2.53,2.53,0,0,0-.85-.45c-.35-.11-.82-.24-1.42-.38a17.69,17.69,0,0,1-2.24-.65,3.7,3.7,0,0,1-1.5-1,2.81,2.81,0,0,1-.63-1.92,3.34,3.34,0,0,1,.57-1.9,3.77,3.77,0,0,1,1.7-1.34,7,7,0,0,1,2.79-.5,9.34,9.34,0,0,1,2.24.27,6.71,6.71,0,0,1,1.92.79l-.85,2.11a6.69,6.69,0,0,0-3.33-.94,3.12,3.12,0,0,0-1.72.37,1.18,1.18,0,0,0-.56,1,1,1,0,0,0,.64.92,10.67,10.67,0,0,0,2,.59,17.69,17.69,0,0,1,2.24.65,3.71,3.71,0,0,1,1.5,1,2.74,2.74,0,0,1,.63,1.9,3.24,3.24,0,0,1-.58,1.88,3.83,3.83,0,0,1-1.72,1.34,7,7,0,0,1-2.79.5A9.67,9.67,0,0,1,360,243.63Z" style="fill:#263238"></path><path d="M372.21,243.22a6,6,0,0,1-2.34-2.21,6.5,6.5,0,0,1,0-6.39,6,6,0,0,1,2.34-2.21,7.41,7.41,0,0,1,6.15-.25,5.63,5.63,0,0,1,2.12,1.58l-1.79,1.64a3.81,3.81,0,0,0-3-1.41,4,4,0,0,0-2,.49,3.45,3.45,0,0,0-1.36,1.37,4.27,4.27,0,0,0,0,4,3.45,3.45,0,0,0,1.36,1.37,4,4,0,0,0,2,.48,3.79,3.79,0,0,0,3-1.42l1.79,1.65a5.71,5.71,0,0,1-2.13,1.59,7,7,0,0,1-2.83.55A6.87,6.87,0,0,1,372.21,243.22Z" style="fill:#263238"></path><path d="M393.35,231.82v12h-2.78v-4.92h-5.45v4.92h-2.78v-12h2.78v4.73h5.45v-4.73Z" style="fill:#263238"></path><path d="M398.64,243.21a5.85,5.85,0,0,1-2.35-2.22,6.35,6.35,0,0,1,0-6.35,5.85,5.85,0,0,1,2.35-2.22,7.37,7.37,0,0,1,6.72,0,5.91,5.91,0,0,1,2.35,2.22,6.29,6.29,0,0,1,0,6.35,5.91,5.91,0,0,1-2.35,2.22,7.37,7.37,0,0,1-6.72,0Zm5.28-2a3.56,3.56,0,0,0,1.35-1.37,4.27,4.27,0,0,0,0-4,3.56,3.56,0,0,0-1.35-1.37,4,4,0,0,0-3.84,0,3.46,3.46,0,0,0-1.34,1.37,4.27,4.27,0,0,0,0,4,3.46,3.46,0,0,0,1.34,1.37,4.08,4.08,0,0,0,3.84,0Z" style="fill:#263238"></path><path d="M413.1,243.21a5.91,5.91,0,0,1-2.35-2.22,6.35,6.35,0,0,1,0-6.35,5.91,5.91,0,0,1,2.35-2.22,7.39,7.39,0,0,1,6.73,0,6.11,6.11,0,0,1,0,10.79,7.39,7.39,0,0,1-6.73,0Zm5.29-2a3.46,3.46,0,0,0,1.34-1.37,4.27,4.27,0,0,0,0-4,3.46,3.46,0,0,0-1.34-1.37,4,4,0,0,0-3.84,0,3.56,3.56,0,0,0-1.35,1.37,4.34,4.34,0,0,0,0,4,3.56,3.56,0,0,0,1.35,1.37,4.08,4.08,0,0,0,3.84,0Z" style="fill:#263238"></path><path d="M425.12,231.82h2.78v9.73h6v2.26h-8.8Z" style="fill:#263238"></path><path d="M450.75,238.66a3,3,0,0,1,.58,1.88,2.77,2.77,0,0,1-1.22,2.42,6.25,6.25,0,0,1-3.58.85h-6.2v-12h5.86a5.74,5.74,0,0,1,3.37.84,2.64,2.64,0,0,1,1.17,2.27,2.89,2.89,0,0,1-1.59,2.64A3.2,3.2,0,0,1,450.75,238.66Zm-7.66-4.75v2.82h2.76a2.81,2.81,0,0,0,1.56-.36,1.2,1.2,0,0,0,.53-1.06,1.17,1.17,0,0,0-.53-1.05,2.82,2.82,0,0,0-1.56-.35Zm4.89,7.45a1.23,1.23,0,0,0,.56-1.11c0-1-.74-1.49-2.21-1.49h-3.24v3h3.24A3.06,3.06,0,0,0,448,241.36Z" style="fill:#263238"></path><path d="M454.77,242.6a5.47,5.47,0,0,1-1.43-4.07v-6.71h2.77v6.61c0,2.15.89,3.22,2.68,3.22a2.51,2.51,0,0,0,2-.78,3.66,3.66,0,0,0,.68-2.44v-6.61h2.74v6.71a5.67,5.67,0,0,1-9.43,4.07Z" style="fill:#263238"></path><path d="M468.14,243.63a6.36,6.36,0,0,1-2.14-1l.95-2.09a6.26,6.26,0,0,0,1.83.91,6.85,6.85,0,0,0,2.12.34,3.43,3.43,0,0,0,1.75-.35,1.06,1.06,0,0,0,.57-.93.89.89,0,0,0-.34-.72,2.53,2.53,0,0,0-.85-.45c-.35-.11-.82-.24-1.42-.38a17.69,17.69,0,0,1-2.24-.65,3.7,3.7,0,0,1-1.5-1,2.81,2.81,0,0,1-.63-1.92,3.34,3.34,0,0,1,.57-1.9,3.82,3.82,0,0,1,1.7-1.34,7,7,0,0,1,2.79-.5,9.28,9.28,0,0,1,2.24.27,6.71,6.71,0,0,1,1.92.79l-.85,2.11a6.69,6.69,0,0,0-3.33-.94,3.12,3.12,0,0,0-1.72.37,1.18,1.18,0,0,0-.56,1,1,1,0,0,0,.65.92,10.28,10.28,0,0,0,2,.59,17.69,17.69,0,0,1,2.24.65,3.64,3.64,0,0,1,1.5,1,2.74,2.74,0,0,1,.63,1.9,3.24,3.24,0,0,1-.58,1.88,3.83,3.83,0,0,1-1.72,1.34,7,7,0,0,1-2.79.5A9.67,9.67,0,0,1,468.14,243.63Z" style="fill:#263238"></path><path d="M175.47,326.49c0,.15-22.35.26-49.91.26s-49.92-.11-49.92-.26,22.34-.26,49.92-.26S175.47,326.35,175.47,326.49Z" style="fill:#455a64"></path><polygon points="309.42 324.79 317.67 332.35 428.79 332.35 428.79 324.79 309.42 324.79" style="fill:#263238"></polygon><path d="M446.24,326.68c0,.15-38,.26-84.82.26s-84.84-.11-84.84-.26,38-.26,84.84-.26S446.24,326.54,446.24,326.68Z" style="fill:#455a64"></path><g style="opacity:0.2"><polygon points="601.26 174.21 590.67 185.97 590.67 201.57 602.79 186.81 601.26 174.21" style="fill:#fff"></polygon></g></g><g id="freepik--speech-bubble--inject-74"><path d="M203.39,231.11l5.26-.62a20.16,20.16,0,1,0-5.19-5h0Z" style="fill:#fff"></path><path d="M203.39,231.11s0-.11,0-.35,0-.62,0-1.07c0-1,0-2.42,0-4.25a.09.09,0,0,1,.09-.09l.07,0h0l-.14.13a20.22,20.22,0,0,1-.87-22.36,20.81,20.81,0,0,1,5.53-5.93,19.8,19.8,0,0,1,8.05-3.47,20.63,20.63,0,0,1,9.32.41,20.4,20.4,0,0,1,13.78,13.19,20.81,20.81,0,0,1,.81,9.39,19.88,19.88,0,0,1-3.21,8.24,20.8,20.8,0,0,1-5.8,5.77,20.36,20.36,0,0,1-6.8,2.86l-1.69.28c-.56.08-1.12.09-1.66.13a17.84,17.84,0,0,1-3.12-.08,20.14,20.14,0,0,1-9.13-3.37h.07l-3.94.41-1,.1-.33,0,.36-.06,1-.14,3.87-.51a.07.07,0,0,1,.06,0,20,20,0,0,0,9.05,3.22,17.43,17.43,0,0,0,3.08.06c.53,0,1.07-.06,1.62-.14l1.66-.29a19.92,19.92,0,0,0,12.32-8.52,19.41,19.41,0,0,0,3.12-8.07,20.28,20.28,0,0,0-.81-9.17,19.95,19.95,0,0,0-13.46-12.89,20.39,20.39,0,0,0-9.1-.42,19.57,19.57,0,0,0-7.89,3.38,20.55,20.55,0,0,0-5.44,5.79,20.25,20.25,0,0,0-2.62,6.71,20.73,20.73,0,0,0-.18,6.35,20.07,20.07,0,0,0,3.49,9,.1.1,0,0,1-.14.13h0l.16-.08c0,1.81-.08,3.21-.1,4.19,0,.46,0,.82,0,1.09A3.06,3.06,0,0,1,203.39,231.11Z" style="fill:#263238"></path><path d="M214.66,213.73a2.2,2.2,0,1,1-2.2-2.2A2.19,2.19,0,0,1,214.66,213.73Z" style="fill:#263238"></path><path d="M222.08,213.73a2.2,2.2,0,1,1-2.2-2.2A2.19,2.19,0,0,1,222.08,213.73Z" style="fill:#263238"></path><path d="M229.31,213.73a2.21,2.21,0,1,1-2.2-2.2A2.2,2.2,0,0,1,229.31,213.73Z" style="fill:#263238"></path></g><g id="freepik--character-2--inject-74"><path d="M326.28,234.34a19.74,19.74,0,0,0-9.23-11.15l.37-.28a8.23,8.23,0,0,0-9.76,5.43,28.19,28.19,0,0,0-.57,5,7,7,0,0,1-1.86,4.61c-.66.61-1.5,1-2.2,1.58A2.52,2.52,0,0,0,302,241.9c.23,1.13,1.56,1.67,2.71,1.74a10.05,10.05,0,0,1,3.43.36,3.62,3.62,0,1,0,5,5.23,4.38,4.38,0,0,0,2.58,5,6.3,6.3,0,0,0,5.8-.73,11.43,11.43,0,0,0,3.8-4.67A19.73,19.73,0,0,0,326.28,234.34Z" style="fill:#263238"></path><path d="M355.14,221.87a3.84,3.84,0,0,0-3.21-2.62,11.24,11.24,0,0,0-4.34.4,14.62,14.62,0,0,0,.36-5.8,5,5,0,0,0-3.71-4.07,6,6,0,0,0-4.59,1.67,23.52,23.52,0,0,1-4,3.1c-3.91,1.95-8.69-.23-12.95.74s-7.95,6.14-7.19,10.56c7.27,2.54,14.62,5.11,21.15,9.19,3.54,2.2,7.34,5,11.43,4.19A7.23,7.23,0,0,0,352,227.12C353.72,225.81,355.64,224,355.14,221.87Z" style="fill:#263238"></path><path d="M347.3,233.71c-.62-6-7.38-11.79-13.38-10.9l-19.37,4.51L318,230l3.52,36.6-.82,2.56h0s-.88,14.5,10.05,13.31c9.81-1.07,8.85-11.45,8.85-11.45l-.75-6.72s8.07-1.51,9.26-11.64C348.69,247.64,348,240.41,347.3,233.71Z" style="fill:#ae7461"></path><path d="M343.45,243.42a1.29,1.29,0,0,1-1.19,1.36,1.25,1.25,0,0,1-1.38-1.11,1.3,1.3,0,0,1,1.19-1.36A1.23,1.23,0,0,1,343.45,243.42Z" style="fill:#263238"></path><path d="M345.75,239.15c-.16.17-1.16-.51-2.55-.45s-2.38.79-2.54.63.07-.38.5-.72a3.56,3.56,0,0,1,2-.72,3.38,3.38,0,0,1,2,.57C345.67,238.77,345.82,239.07,345.75,239.15Z" style="fill:#263238"></path><path d="M331.14,243.85A1.29,1.29,0,0,1,330,245.2a1.23,1.23,0,0,1-1.38-1.11,1.29,1.29,0,0,1,1.19-1.35A1.23,1.23,0,0,1,331.14,243.85Z" style="fill:#263238"></path><path d="M333,239.89c-.16.17-1.17-.51-2.56-.45s-2.37.8-2.53.63.07-.38.5-.72a3.56,3.56,0,0,1,2-.72,3.39,3.39,0,0,1,2,.57C332.88,239.51,333,239.81,333,239.89Z" style="fill:#263238"></path><path d="M337.56,250.49a10.26,10.26,0,0,1,2.25-.46c.35-.05.68-.12.74-.33s-.09-.54-.27-.88l-1.12-2.24c-.43-.82-2.52-5.43-2.56-5.88.16-.06,1.55,2.49,3.11,5.68.38.78.74,1.54,1.08,2.25a1.53,1.53,0,0,1,.23,1.18.88.88,0,0,1-.57.46,2.49,2.49,0,0,1-.6.1A11.89,11.89,0,0,1,337.56,250.49Z" style="fill:#263238"></path><path d="M339,264.38a25.69,25.69,0,0,1-13.64-3.05s3.74,6.89,13.78,5.54Z" style="fill:#6f4439"></path><path d="M332.66,236.6c-.15.43-1.36.16-2.8.32s-2.63.62-2.8.22c-.08-.2.15-.6.63-1a4,4,0,0,1,2.11-.85,3.55,3.55,0,0,1,2.16.44C332.47,236,332.72,236.39,332.66,236.6Z" style="fill:#263238"></path><path d="M345.4,236.49c-.27.36-1.26-.07-2.47-.14s-2.24.15-2.46-.25c-.1-.2.08-.57.54-.9a3.15,3.15,0,0,1,2-.52,3.21,3.21,0,0,1,1.94.84C345.4,235.92,345.52,236.31,345.4,236.49Z" style="fill:#263238"></path><path d="M346.2,228a14.65,14.65,0,0,0-9.3-6.55,24.21,24.21,0,0,0-11.56.38,72,72,0,0,0-10.95,4.06,3.88,3.88,0,0,0-2.19,1.69,3.81,3.81,0,0,0-.15,1.9q.72,8.07,1.43,16.14l1.57,3.27c1.74,0,3.18-1.37,4.27-2.74a24.06,24.06,0,0,0,5.16-17.1,7.93,7.93,0,0,1,1,2.31,2.64,2.64,0,0,0,1.66,1.79c1.38.32,2.47-1.26,2.64-2.67s-.13-2.92.52-4.19a16.16,16.16,0,0,0,5.52,4.71c1,.53,2.36.92,3.24.18a2.18,2.18,0,0,0,.52-2.25,6.24,6.24,0,0,0-1.23-2.09,12.78,12.78,0,0,0,6.36,3.51,1.72,1.72,0,0,0,1.54-.18C346.88,229.69,346.59,228.72,346.2,228Z" style="fill:#263238"></path><path d="M319.67,243.74c-.16-.06-6.27-1.53-5.77,4.61s6.55,4.38,6.55,4.2S319.67,243.74,319.67,243.74Z" style="fill:#ae7461"></path><path d="M318.38,250.37s-.1.09-.27.19a1.12,1.12,0,0,1-.8.08,2.65,2.65,0,0,1-1.41-2.28,3.61,3.61,0,0,1,.17-1.56,1.23,1.23,0,0,1,.74-.88.56.56,0,0,1,.66.24c.09.17.06.29.1.3s.12-.11.05-.36a.75.75,0,0,0-.27-.37.83.83,0,0,0-.61-.11,1.5,1.5,0,0,0-1,1,3.65,3.65,0,0,0-.23,1.74,2.77,2.77,0,0,0,1.77,2.52,1.16,1.16,0,0,0,1-.24C318.38,250.52,318.41,250.38,318.38,250.37Z" style="fill:#6f4439"></path><path d="M323.18,228.39a1.85,1.85,0,0,1-.11.37c-.08.23-.22.58-.41,1a19.58,19.58,0,0,1-2,3.49,21.48,21.48,0,0,1-1.78,2.15c-.35.36-.7.73-1.11,1.09a3,3,0,0,1-1.51.78,1.87,1.87,0,0,1-1.65-.7,3.34,3.34,0,0,1-.71-1.72c-.14-1.29.37-2.51.44-3.76,0-.17,0-.33,0-.48l.29.09-2.38,2.83-1.12,1.35a3.44,3.44,0,0,1-1.35,1.09,1.27,1.27,0,0,1-.9,0,1.48,1.48,0,0,1-.63-.58,3.83,3.83,0,0,1-.43-1.49,10.73,10.73,0,0,1,0-2.72,10.61,10.61,0,0,1,1.18-3.72,9.71,9.71,0,0,1,.56-.9c.14-.2.22-.3.23-.29s-.27.43-.68,1.25a11.2,11.2,0,0,0-1.07,3.69,10.85,10.85,0,0,0,0,2.66,3.29,3.29,0,0,0,.4,1.37,1,1,0,0,0,1.19.48,3.05,3.05,0,0,0,1.22-1l1.11-1.34,2.36-2.83.28-.33v.42a4.51,4.51,0,0,1,0,.52c-.09,1.32-.58,2.53-.46,3.7a3.06,3.06,0,0,0,.64,1.56,1.54,1.54,0,0,0,1.37.6,2.66,2.66,0,0,0,1.36-.7c.4-.34.76-.71,1.11-1.05a22.41,22.41,0,0,0,1.78-2.1,22,22,0,0,0,2.08-3.41c.21-.42.36-.76.46-1A2.11,2.11,0,0,1,323.18,228.39Z" style="fill:#455a64"></path><path d="M333,250.48a.84.84,0,0,1,.42-.16,1,1,0,0,1,.59.31l2.94,2.58a3,3,0,0,1-2.5,1.74,2.59,2.59,0,0,1-2.4-1.76A2.44,2.44,0,0,1,333,250.48Z" style="fill:#6f4439"></path><path d="M334.15,255.36a6.63,6.63,0,0,1-1.26-1,2.88,2.88,0,0,1-.66-1.51,2.81,2.81,0,0,1,.47-1.93,1,1,0,0,1,.31-.34.27.27,0,0,1,.31,0c.25.15.55.42.81.62l1.41,1.1a5.91,5.91,0,0,0,1.39.92,5.8,5.8,0,0,0-1.18-1.18l-1.35-1.17a8.6,8.6,0,0,0-.86-.69.74.74,0,0,0-.75,0,1.57,1.57,0,0,0-.48.48,3.2,3.2,0,0,0-.51,2.26,3,3,0,0,0,.85,1.67A2.1,2.1,0,0,0,334.15,255.36Z" style="fill:#263238"></path><path d="M331.92,449l-1.11,24.71,31.48,1.56c0-2.94-16-9.65-16-9.65l1.38-15.8Z" style="fill:#455a64"></path><path d="M336.6,463.8a1.19,1.19,0,1,0,.44,2.33,1.32,1.32,0,0,0,1-1.47,1.29,1.29,0,0,0-1.57-.83" style="fill:#fff"></path><path d="M330.8,473.75l.11-2.65,30.22,2.64s1.36.67,1.15,1.62Z" style="fill:#263238"></path><path d="M346.78,465.48c0,.15-.78.18-1.56.63s-1.22,1.05-1.36,1,.14-.93,1.09-1.45S346.82,465.35,346.78,465.48Z" style="fill:#263238"></path><path d="M350,467c0,.15-.65.37-1.21,1s-.74,1.27-.89,1.26-.21-.87.5-1.62S350,466.84,350,467Z" style="fill:#263238"></path><path d="M351.7,470.93c-.14,0-.32-.73.12-1.54s1.17-1.09,1.23-1-.41.54-.76,1.21S351.85,470.92,351.7,470.93Z" style="fill:#263238"></path><path d="M346.69,461.85c-.07.13-.77-.11-1.64-.1s-1.56.25-1.64.12.61-.64,1.64-.64S346.77,461.73,346.69,461.85Z" style="fill:#263238"></path><path d="M321.67,449.47l-1.24,25,31.18,1c0-3-15.82-9.42-15.82-9.42l1.45-16Z" style="fill:#455a64"></path><path d="M326.22,464.33a1.28,1.28,0,0,0-1,1.42,1.18,1.18,0,0,0,1.38.92,1.36,1.36,0,0,0,1-1.51,1.24,1.24,0,0,0-1.55-.8" style="fill:#fff"></path><path d="M320.42,474.48l.12-2.67,29.93,2.06s1.35.66,1.13,1.62Z" style="fill:#263238"></path><path d="M336.3,465.83c0,.15-.78.19-1.55.66s-1.21,1.09-1.35,1,.14-.93,1.09-1.48S336.34,465.69,336.3,465.83Z" style="fill:#263238"></path><path d="M339.5,467.27c0,.15-.65.39-1.2,1s-.74,1.29-.89,1.28-.2-.87.5-1.63S339.5,467.13,339.5,467.27Z" style="fill:#263238"></path><path d="M341.14,471.23c-.14,0-.31-.74.13-1.56s1.16-1.12,1.22-1-.41.56-.75,1.23S341.29,471.22,341.14,471.23Z" style="fill:#263238"></path><path d="M336.23,462.16c-.08.13-.76-.1-1.63-.06s-1.55.28-1.62.14.6-.65,1.62-.67S336.31,462,336.23,462.16Z" style="fill:#263238"></path><path d="M347.82,339.15l.65,11s10.86,44.89,8.68,57.2c-2.74,15.49-9.3,56.93-9.3,56.93l-19.44-.24s.95-37.44,4.92-53.49c4.26-17.24-4.8-69.84-4.8-69.84Z" style="fill:#263238"></path><path d="M351.27,337.15l-36.45-3.61a82.9,82.9,0,0,0-4,20.72c-.53,8.79,4.86,23.73,4.86,23.73,2.47,8.06,6.35,24.87,6.35,24.87l-3.21,61,14.31.3s12.52-51.3,14.48-58.56c2.95-10.89-.68-40.74-.68-40.74C347.41,360,351.27,337.15,351.27,337.15Z" style="fill:#263238"></path><path d="M351.27,337.15a2.09,2.09,0,0,0-.09.4l-.21,1.17c-.17,1-.43,2.56-.75,4.5-.64,3.93-1.55,9.59-2.68,16.56v0h0c.21,6.53.45,14.23.72,22.75q.11,3.19.21,6.53a48.11,48.11,0,0,1-.19,6.77c-.47,4.59-1.29,9.3-2.27,14.09-.55,2.68-1.15,5.32-1.77,7.92a71.55,71.55,0,0,0-1.49,7.73c-.8,5.08-1.53,10-2.21,14.57-1.32,9.22-2.48,17.37-3.42,23.92l.15-.13-13.57-.14-3.63,0h-.94l-.32,0,.32,0,.94,0,3.63.1,13.57.27h.13l0-.14c1-6.54,2.18-14.68,3.54-23.9.71-4.6,1.46-9.48,2.23-14.56a76.82,76.82,0,0,1,1.5-7.7c.62-2.59,1.22-5.24,1.77-7.93a138.5,138.5,0,0,0,2.27-14.13,47.69,47.69,0,0,0,.19-6.84c-.08-2.22-.15-4.4-.23-6.53-.3-8.51-.58-16.21-.81-22.74v0c1.07-7,1.93-12.64,2.53-16.58.29-1.94.51-3.46.67-4.52.07-.5.12-.89.16-1.17A3.14,3.14,0,0,0,351.27,337.15Z" style="fill:#455a64"></path><path d="M342.18,273.66c.09.37,4.78,12,5.35,17.94.59,6.09,1.52,12.68,1.52,12.68l4.78,32.87-2.56,11.07-40.46-7,2.89-38.81-2-16a33.61,33.61,0,0,1,5.87-23.54h0s14.62.58,15.66,1l5.75,5.33Z" style="fill:#455a64"></path><path d="M312.2,329.27s23-25.22,26.13-33c4.6-11.4,5.86-23.42-.89-29.66s-16.66-3.42-21.57,1.6c-3.47,3.56-9.08,24.22-9.08,24.22l5.92,2.08s4.35-35.44,19.41-29.3c6.15,2.52,8.61,8.2,7.7,14s-4.4,20.55-27.94,41.32l-.41,6Z" style="fill:#263238"></path><path d="M313.51,294.12s-7.39-2.53-11.63-2.09-15.1,8.74-17,11.49-8.81,19-9.75,22.51-.09,9.89,3.57,11.63c3.36,1.6,16.76,5.58,24.58,5.15h.23c5.38-.33,9.49-3.64,9.64-7.69l1.21-33.44Z" style="fill:#263238"></path><path d="M308.82,293.19a5,5,0,0,1-.73.83c-.5.52-1.23,1.27-2.16,2.17-1.87,1.82-4.54,4.27-7.65,6.86a22.51,22.51,0,0,1-4.78,3.39,6.72,6.72,0,0,1-2.79.58c-.89,0-1.73,0-2.5,0a9.14,9.14,0,0,1-3.52-.67,3.74,3.74,0,0,1-.78-.48c-.16-.13-.23-.2-.22-.21s.35.26,1.08.57a9.42,9.42,0,0,0,3.45.54c.75,0,1.57,0,2.47,0a6.49,6.49,0,0,0,2.6-.57,23.6,23.6,0,0,0,4.65-3.36c3.11-2.58,5.81-5,7.73-6.77l2.28-2.09A6.26,6.26,0,0,1,308.82,293.19Z" style="fill:#455a64"></path><path d="M313.5,333.68a13.33,13.33,0,0,1-1.56-.13c-1-.1-2.43-.27-4.2-.5-3.55-.46-8.43-1.19-13.77-2.17s-10.13-2-13.57-2.87c-1.72-.41-3.11-.76-4.06-1a14.38,14.38,0,0,1-1.46-.43,10.17,10.17,0,0,1,1.51.3l4.1.91c3.45.77,8.24,1.78,13.58,2.77s10.19,1.75,13.72,2.27l4.18.61A13,13,0,0,1,313.5,333.68Z" style="fill:#455a64"></path><path d="M296.66,304.28a4.86,4.86,0,0,1,.09,1c0,.68,0,1.65,0,2.85a68.26,68.26,0,0,1-.92,9.36,70.75,70.75,0,0,1-2.19,9.22c-.37,1.17-.69,2.1-.94,2.74a4.62,4.62,0,0,1-.42,1,4.62,4.62,0,0,1,.25-1c.21-.72.47-1.65.79-2.77a91.75,91.75,0,0,0,2.06-9.21,90.21,90.21,0,0,0,1-9.32c.06-1.15.11-2.1.15-2.84A4.86,4.86,0,0,1,296.66,304.28Z" style="fill:#455a64"></path><path d="M290.94,305.61l-2.29,0a.55.55,0,0,0-.15.33c-.08.34-.15.68-.22,1a2.12,2.12,0,0,0-.06,1,1.12,1.12,0,0,0,.79.77,1.43,1.43,0,0,0,1.45-.54,2.71,2.71,0,0,0,.43-1.27C290.94,306.5,290.92,306.13,290.94,305.61Z" style="fill:#455a64"></path><path d="M295.18,319.85a14.58,14.58,0,0,1-2.41-.27c-1.48-.22-3.51-.58-5.72-1.05s-4.19-1-5.61-1.37a13.09,13.09,0,0,1-2.25-.73,21,21,0,0,1,2.35.49c1.43.34,3.42.8,5.62,1.27s4.22.87,5.67,1.15A17.43,17.43,0,0,1,295.18,319.85Z" style="fill:#455a64"></path><path d="M296.46,266.17a5.57,5.57,0,0,0-2.58,1.46,5.22,5.22,0,0,0-.72,4,23.56,23.56,0,0,0,4.27,10.75c1,1.41,2.33,2.79,4,3.09,2.11.38,5.87-.63,7.36-2.18,3.77-3.92,5.31-10,7-15.17l1.78-5.3A62.51,62.51,0,0,0,296.46,266.17Z" style="fill:#455a64"></path><g style="opacity:0.2"><path d="M316.62,296.56s-1,18.36.69,24.85,15,24.24,15,24.24l5.86.4Z"></path></g><rect x="325.02" y="330.64" width="44.14" height="31.81" transform="translate(-116.91 187.58) rotate(-26.04)" style="fill:#ebebeb"></rect><path d="M331.24,336.65a66.78,66.78,0,0,1-3,7.32,67.24,67.24,0,0,1-3.48,7.14,66.72,66.72,0,0,1,3-7.32A70.31,70.31,0,0,1,331.24,336.65Z" style="fill:#fff"></path><path d="M337.88,333.41c.12,0-1.93,5.58-4.58,12.36s-4.89,12.24-5,12.18,1.93-5.57,4.59-12.36S337.76,333.37,337.88,333.41Z" style="fill:#fff"></path><path d="M346.71,329c.13.05-3,8.45-7.06,18.71s-7.39,18.55-7.5,18.54,3-8.45,7.07-18.7S346.59,329,346.71,329Z" style="fill:#fff"></path><path d="M355.72,324.69c.13.05-3.59,9.87-8.29,22s-8.67,21.78-8.77,21.75,3.6-9.86,8.3-22S355.61,324.64,355.72,324.69Z" style="fill:#fff"></path><path d="M362.53,327.87c.12.05-2.92,8.12-6.8,18s-7.11,17.91-7.21,17.85,2.92-8.12,6.8-18S362.4,327.81,362.53,327.87Z" style="fill:#fff"></path><path d="M366.65,336.33c.13.05-1.79,5.24-4.29,11.59s-4.59,11.45-4.71,11.4,1.79-5.23,4.3-11.58S366.53,336.29,366.65,336.33Z" style="fill:#fff"></path><path d="M370.1,343.48a45.12,45.12,0,0,1-1.94,6,43.53,43.53,0,0,1-2.37,5.84,42.34,42.34,0,0,1,1.93-6A42.81,42.81,0,0,1,370.1,343.48Z" style="fill:#fff"></path><path d="M336.86,333.91a4.6,4.6,0,0,1,.3,1,7.57,7.57,0,0,1,.25,1.24,13.74,13.74,0,0,1,.2,1.68,23,23,0,0,1-.06,4.39,26.79,26.79,0,0,1-1.18,5.25,26.43,26.43,0,0,1-2.3,4.87,23.76,23.76,0,0,1-2.65,3.51,14.85,14.85,0,0,1-1.19,1.19,10.65,10.65,0,0,1-1,.83,5.51,5.51,0,0,1-.89.63c0-.08,1.17-1,2.79-2.87a25.54,25.54,0,0,0,2.52-3.51,28.27,28.27,0,0,0,2.23-4.8,27.49,27.49,0,0,0,1.19-5.15,24,24,0,0,0,.16-4.32C337.16,335.42,336.76,333.93,336.86,333.91Z" style="fill:#e0e0e0"></path><path d="M368.21,339.13a4.17,4.17,0,0,1-1,.53,14.81,14.81,0,0,1-2.91,1,17,17,0,0,1-17.83-6.89,15.14,15.14,0,0,1-1.5-2.66,5.17,5.17,0,0,1-.38-1.06,32.59,32.59,0,0,0,2.15,3.53,17.38,17.38,0,0,0,17.51,6.79A33.5,33.5,0,0,0,368.21,339.13Z" style="fill:#e0e0e0"></path><path d="M348.47,345.05l8.21,3.29,5.31,6.5s-.37,1.94-2.4.72c0,0,3.2,5.93,2.78,6.55s-2.45,1.3-3.3-.14a2.75,2.75,0,0,1-1.34,2c-1.17.57-1.93.13-2.76-1.22,0,0-.43,1.85-1.6,1.78a2.74,2.74,0,0,1-1.88-1.13s-1.42,1.3-2.24.68a16.14,16.14,0,0,1-3.1-3.83l-2.48-5.06-1.83-3.09Z" style="fill:#ae7461"></path><path d="M356.77,357.46a8.34,8.34,0,0,0,1,2.35,8.11,8.11,0,0,0,1.33,2.16,8.13,8.13,0,0,0-1-2.34A8,8,0,0,0,356.77,357.46Z" style="fill:#6f4439"></path><path d="M353.06,359.07a10.28,10.28,0,0,0,1.79,3.65,5.18,5.18,0,0,0-.73-1.9A5.4,5.4,0,0,0,353.06,359.07Z" style="fill:#6f4439"></path><path d="M349.92,360.35a5.32,5.32,0,0,0,.76,1.55,7.88,7.88,0,0,0,.82,1.51,2.78,2.78,0,0,0-.47-1.7A3.14,3.14,0,0,0,349.92,360.35Z" style="fill:#6f4439"></path><path d="M357.66,351.4a9.72,9.72,0,0,0,.91,2.33,9.14,9.14,0,0,0,1.14,2.22,6.7,6.7,0,0,0-.76-2.43A7,7,0,0,0,357.66,351.4Z" style="fill:#6f4439"></path><path d="M353,346.63l-16-31.07s2.07-29.06,2.64-35.28c.31-3.33.51-6.91-1.2-9.77h0a9.16,9.16,0,0,0-5.92-4.05,13.84,13.84,0,0,0-9.64,1.93c-4.24,2.68-4.06,7.82-5.43,12.64-1.28,4.5-.76,19.25-.27,25.33l1.93,13.55c1.75,7.94,23.31,34.25,23.31,34.25Z" style="fill:#455a64"></path><path d="M342.39,354.15a5.06,5.06,0,0,1,.71-.57l2.08-1.55,7.65-5.57-.06.26-10-19.38-6-11.67,0-.05v-.07c.39-6.31.72-11.7,1-15.58.13-1.87.24-3.37.32-4.46,0-.49.07-.88.1-1.19a1.25,1.25,0,0,1,.07-.41,2.76,2.76,0,0,1,0,.42c0,.31,0,.7,0,1.18,0,1.1-.1,2.6-.17,4.47-.2,3.89-.46,9.28-.77,15.6l0-.13,6,11.65,9.93,19.44.08.15-.14.1-7.76,5.42-2.14,1.46A5.15,5.15,0,0,1,342.39,354.15Z" style="fill:#263238"></path><path d="M318.76,319.69a6.45,6.45,0,0,1-.26-1.21c-.13-.79-.3-1.94-.49-3.36-.39-2.84-.83-6.77-1.18-11.13s-.53-8.31-.6-11.17c0-1.43-.05-2.59,0-3.39a5.24,5.24,0,0,1,.06-1.25,5.88,5.88,0,0,1,.14,1.24q.08,1.36.21,3.39c.16,2.85.41,6.79.75,11.14s.73,8.28,1,11.13c.14,1.34.25,2.47.34,3.37A5.07,5.07,0,0,1,318.76,319.69Z" style="fill:#263238"></path><path d="M338.25,270.71a13.39,13.39,0,0,0-3.05-2.52,11.11,11.11,0,0,0-4-1.35,10.94,10.94,0,0,0-5.13.52,11.58,11.58,0,0,0-4.31,2.88,13.11,13.11,0,0,0-2.39,3.53,21,21,0,0,0-1.18,3.8,3.5,3.5,0,0,1,0-1.09,11.74,11.74,0,0,1,.8-2.86,12.5,12.5,0,0,1,2.37-3.71,11.85,11.85,0,0,1,4.48-3,11.17,11.17,0,0,1,9.53,1,9.14,9.14,0,0,1,2.26,1.94A3,3,0,0,1,338.25,270.71Z" style="fill:#263238"></path></g><g id="freepik--character-1--inject-74"><path d="M206.8,256.72c-5-5.85-10.91-7.59-12.47-15.11-.78-3.76,1.33-13.05-.18-16.58a18,18,0,0,0-10.78-9.83h0c-4.72-2.06-13.84-1.69-18,.12a22.11,22.11,0,0,0-9.74,9.17c-3.59,6-5.18,13-5.6,20s.29,13.94,1,20.88c5.54-.94,11.21-.53,16.8,0,6.16.62,12.34,1.4,18.54,1.27s12.49-1.23,17.95-4.17c-1-2.33-2.08-4.67-3.11-7A4.13,4.13,0,0,0,206.8,256.72Z" style="fill:#263238"></path><path d="M163.71,236.1a15.51,15.51,0,0,1,8.23-13.51,19.14,19.14,0,0,1,7.4-1.77,11.71,11.71,0,0,1,6.83,1.44c1.59.37,7.44,5.73,7.73,11.54.33,6.46.51,13.08-.16,17.91-1.16,8.51-9.29,10-9.29,10l.7,18.17-17.64-8.58Z" style="fill:#ffbf9d"></path><path d="M179.42,250.41c.22-.52.28-1.1.75-1.32.93-.44,2.4.81,3.75,1.44.92.43-.17,1.08-.61,2.1h0c-.63.5-1.13,1-1.92.89l-.36-.09a2.48,2.48,0,0,1-1.45-1.08A2.24,2.24,0,0,1,179.42,250.41Z" style="fill:#ff9a6c"></path><path d="M190.87,241.83a1.25,1.25,0,0,1-1.21,1.24,1.2,1.2,0,0,1-1.27-1.14,1.25,1.25,0,0,1,1.21-1.24A1.19,1.19,0,0,1,190.87,241.83Z" style="fill:#263238"></path><path d="M191.64,237.44c-.15.16-1.09-.55-2.42-.56s-2.33.64-2.47.48.09-.37.52-.67a3.42,3.42,0,0,1,2-.59,3.26,3.26,0,0,1,1.92.65C191.58,237.07,191.72,237.37,191.64,237.44Z" style="fill:#263238"></path><path d="M183.7,248a8.66,8.66,0,0,1,2.17-.37c.34,0,.67-.09.73-.32a1.79,1.79,0,0,0-.22-1c-.31-.83-.63-1.7-1-2.61-1.35-3.71-1.78-5.18-1.63-5.23s.82,1.33,2.18,5c.32.92.64,1.79.93,2.62a2,2,0,0,1,.16,1.35.85.85,0,0,1-.56.49,2.6,2.6,0,0,1-.58.07A8.94,8.94,0,0,1,183.7,248Z" style="fill:#263238"></path><path d="M184.46,261.7a24.68,24.68,0,0,1-13-3.6s3.37,6.86,13.06,6.07Z" style="fill:#ff9a6c"></path><path d="M191.31,234.08c-.28.34-1.4,0-2.75,0s-2.48.23-2.74-.12c-.12-.18.06-.52.56-.84a4.09,4.09,0,0,1,2.23-.56,4,4,0,0,1,2.2.69C191.28,233.57,191.44,233.92,191.31,234.08Z" style="fill:#263238"></path><path d="M177.12,242a1.23,1.23,0,0,0,1.23,1.22,1.19,1.19,0,0,0,1.25-1.15,1.25,1.25,0,0,0-1.23-1.22A1.19,1.19,0,0,0,177.12,242Z" style="fill:#263238"></path><path d="M173.36,237.67c.16.16,1.08-.56,2.42-.59s2.33.61,2.47.44-.1-.36-.53-.66a3.43,3.43,0,0,0-2-.56,3.23,3.23,0,0,0-1.92.68C173.42,237.3,173.28,237.6,173.36,237.67Z" style="fill:#263238"></path><path d="M172.51,234.05c.35.39,1.69,0,3.3,0s3,.27,3.29-.14c.14-.2-.08-.6-.67-1a5.26,5.26,0,0,0-5.31.14C172.55,233.45,172.36,233.86,172.51,234.05Z" style="fill:#263238"></path><path d="M165.16,245.29c0-.72-.81-2.43-1.52-2.55-1.9-.31-5.32-.2-5.41,4.62-.12,6.6,7.23,5.32,7.25,5.13S165.14,247.78,165.16,245.29Z" style="fill:#ffbf9d"></path><path d="M163,250.09s-.11.08-.31.16a1.14,1.14,0,0,1-.86,0,2.86,2.86,0,0,1-1.27-2.58,3.76,3.76,0,0,1,.36-1.64,1.32,1.32,0,0,1,.88-.87.59.59,0,0,1,.67.33c.08.19,0,.32.07.33s.15-.11.1-.38a.73.73,0,0,0-.25-.42.89.89,0,0,0-.63-.18,1.63,1.63,0,0,0-1.22,1,3.9,3.9,0,0,0-.44,1.83,3,3,0,0,0,1.63,2.88,1.23,1.23,0,0,0,1.05-.15C163,250.25,163,250.1,163,250.09Z" style="fill:#ff9a6c"></path><path d="M175.31,245.78h-.13a.31.31,0,0,0-.12.47.31.31,0,0,0,.48-.06A.3.3,0,0,0,175.31,245.78Z" style="fill:#ff9a6c"></path><path d="M174.58,248.17l-.14,0a.31.31,0,0,0-.11.48.3.3,0,0,0,.48-.07A.31.31,0,0,0,174.58,248.17Z" style="fill:#ff9a6c"></path><path d="M189,248.39l-.13,0a.3.3,0,0,0-.12.46.31.31,0,0,0,.48-.06A.3.3,0,0,0,189,248.39Z" style="fill:#ff9a6c"></path><path d="M193.33,222.74a16.55,16.55,0,0,0-11.92-7.59c-4.77-.41-9.66,1.83-13.37,4.85a37.59,37.59,0,0,0-6.19,20.43c1.44,1.79,2.41,4.78,3.53,4s.7-3,1-4.34c.63-2.66,1.27-5.32,1.9-8,.67-2.82,1.68-6.05,4.38-7.12,3-1.21,6.64,1,9.69-.17,1.49-.59,2.78-2,4.38-1.83a4.38,4.38,0,0,1,2.69,1.79,20,20,0,0,1,4.64,11.62A13.88,13.88,0,0,0,193.33,222.74Z" style="fill:#263238"></path><path d="M163.64,242.74c-.62-.53-3.24-7.06.34-14.51s7.07-15.77,20.17-12.75a21.08,21.08,0,0,0-10-1.67c-5.32.51-14.15,8.13-15.34,16.14s2.07,12.68,2.44,12.71S163.64,242.74,163.64,242.74Z" style="fill:#455a64"></path><path d="M182.25,253.29s-.1.15-.39.26a2.12,2.12,0,0,1-1.27,0,2.32,2.32,0,0,1-1.42-1.25,3,3,0,0,1,0-2.32,1.91,1.91,0,0,1,.76-1,1.24,1.24,0,0,1,1.21,0l1.62.81a5.73,5.73,0,0,1,1.43.85,6.05,6.05,0,0,1-1.57-.56c-.87-.21-2.52-1.71-3,.07a2.78,2.78,0,0,0,0,2,2,2,0,0,0,1.15,1.12A2.62,2.62,0,0,0,182.25,253.29Z" style="fill:#263238"></path><path d="M189,448l-.22,24.24,30.9.42c-.14-2.89-16-8.89-16-8.89l.79-15.52Z" style="fill:#455a64"></path><path d="M194.05,462.33a1.16,1.16,0,1,0,.52,2.27,1.31,1.31,0,0,0,.94-1.48,1.28,1.28,0,0,0-1.57-.76" style="fill:#fff"></path><path d="M188.73,472.28v-2.59l29.7,1.5s1.36.61,1.19,1.56Z" style="fill:#263238"></path><path d="M204.09,463.62c0,.14-.76.2-1.51.66s-1.15,1.08-1.29,1,.1-.91,1-1.45S204.13,463.48,204.09,463.62Z" style="fill:#263238"></path><path d="M207.31,465c0,.14-.62.38-1.14,1s-.68,1.27-.83,1.26-.23-.84.43-1.59S207.31,464.83,207.31,465Z" style="fill:#263238"></path><path d="M209.1,468.78c-.14,0-.34-.71.06-1.51s1.11-1.11,1.17-1-.38.55-.69,1.21S209.25,468.77,209.1,468.78Z" style="fill:#263238"></path><path d="M203.87,460.06c-.07.13-.75-.08-1.61,0s-1.52.3-1.6.18.57-.65,1.58-.69S204,459.94,203.87,460.06Z" style="fill:#263238"></path><path d="M152,432.34l-16.24,18.34L159,470.52c1.81-2.28-6.33-16.91-6.33-16.91l10.89-11.33Z" style="fill:#455a64"></path><path d="M146.34,446.5a1.28,1.28,0,0,0-1.61.49,1.17,1.17,0,0,0,.5,1.56,1.34,1.34,0,0,0,1.69-.54,1.22,1.22,0,0,0-.69-1.56" style="fill:#fff"></path><path d="M135.68,450.72l1.73-2,21.64,19.91s.63,1.33-.13,1.93Z" style="fill:#263238"></path><path d="M153.14,453.82c-.11.11-.72-.33-1.6-.45s-1.59.1-1.66,0,.68-.63,1.74-.46S153.25,453.74,153.14,453.82Z" style="fill:#263238"></path><path d="M154.7,456.89c-.07.13-.74-.1-1.54,0s-1.36.54-1.47.44.38-.79,1.38-.95S154.79,456.78,154.7,456.89Z" style="fill:#263238"></path><path d="M153.53,460.92c-.12-.06.21-.75,1.05-1.11s1.58-.15,1.55,0-.66.18-1.34.49S153.65,461,153.53,460.92Z" style="fill:#263238"></path><path d="M155.33,451c-.14.06-.53-.54-1.21-1s-1.36-.74-1.33-.88.86-.13,1.65.47S155.46,450.93,155.33,451Z" style="fill:#263238"></path><path d="M162.36,332a96.73,96.73,0,0,0-6.08,16.24c-4.66,17.09-9.74,33.14-10.2,37.43-.83,7.76-.13,10.54,11,10.37s6.17-9.41,14.73-6.33S181,384.6,181,384.6l6.28-51.76Z" style="fill:#2E597B"></path><path d="M201.8,336.43l1,10.79s12.24,43.59,10.54,55.74c-2.13,15.27-7.09,56.09-7.09,56.09l-19.05.46s-.4-36.71,2.92-52.58c3.56-17-7.19-68.24-7.19-68.24Z" style="fill:#263238"></path><path d="M198.49,367c.31-4.79,4.18-34.78,4.18-34.78l-35.59-1.28s-2.66.14-3.16,4.32c0,0-3.2,6.82-3.47,18.05C160.24,361.94,166,377,166,377a199.75,199.75,0,0,0,8.22,18.87l-35.65,43.31,18.36,13.72s43.71-44.37,45.38-51.55C204.76,390.58,198.23,371,198.49,367Z" style="fill:#263238"></path><path d="M192,354.69s0,.07.1.22l.23.65.86,2.54c.73,2.25,1.78,5.43,3.06,9.35s2.74,8.69,4.2,14c.74,2.65,1.47,5.44,2.19,8.35s1.49,6,1.11,9.22a12.49,12.49,0,0,1-1.46,4.53,32.6,32.6,0,0,1-2.65,3.75c-1.87,2.35-3.78,4.51-5.61,6.57-3.67,4.1-7.07,7.69-10,10.68s-5.26,5.37-6.92,7c-.84.81-1.49,1.44-1.94,1.85-.21.19-.38.34-.51.47l-.19.15s0-.07.15-.19l.48-.5L177,431.4c1.62-1.66,4-4.08,6.81-7.1s6.23-6.64,9.87-10.74c1.81-2.06,3.71-4.23,5.57-6.57a32.16,32.16,0,0,0,2.6-3.69,12.08,12.08,0,0,0,1.4-4.35c.37-3.11-.4-6.16-1.09-9.05s-1.43-5.69-2.16-8.34c-1.44-5.3-2.88-10-4.1-14s-2.21-7.14-2.9-9.4c-.33-1.09-.58-1.94-.77-2.57l-.19-.67A1.93,1.93,0,0,1,192,354.69Z" style="fill:#455a64"></path><path d="M203,330.38l1.45,7.7-41,3.53s.31-7,1-9.59S203,330.38,203,330.38Z" style="fill:#2E597B"></path><path d="M160.18,393.93c2.72-3.16,3.41-7.61,3.19-11.77s-1.22-8.24-1.43-12.4a43.53,43.53,0,0,1,3.36-18,131.28,131.28,0,0,1,8.3-16.45c-1.87-.24-10.44-.82-12.31-1.06l-9.67,39.05s-2.78,16.05-2.78,16.49S160.18,393.93,160.18,393.93Z" style="fill:#2E597B"></path><path d="M206.6,344.75c-.65-2.42-2.38-6.55-4.75-7.52l-.36,6.9a80.23,80.23,0,0,0,3.95,17.42A26,26,0,0,0,206.6,344.75Z" style="fill:#2E597B"></path><path d="M196.41,352c.79-5.89,3.4-11.6,3.16-17.53l3.05,2.75c2.86,6.33,3.63,13.35,3.85,20.26s-.06,13.87.84,20.73a15,15,0,0,0-3.26.4,3.51,3.51,0,0,1-3.06-.73,3.86,3.86,0,0,1-.75-1.55C197.79,368.43,195.31,360.24,196.41,352Z" style="fill:#2E597B"></path><path d="M201,330.56l-1.63-7.25L199.6,311s-.09-15.2-.89-21.15c-.77-5.77-7.36-17-7.46-17.4L188,268.25l-5.82-5c-1-.43-15.39-.47-15.39-.47l-6.95,10.68,7.47,30-.71,28.63Z" style="fill:#ebebeb"></path><path d="M166.9,327s18.56-24.46,21.38-32.24c4.1-11.34,4.91-23.15-1.93-29s-15.77-2.52-19.45.67-6.14,5.71-6.14,5.71l4.21,2.85s6.48-13.75,16.12-10.4c6.16,2.13,8.72,7.72,8,13.43s.1,20.27-22.23,41.46L163,325.28Z" style="fill:#263238"></path><polygon points="228.78 287.37 226.89 285.71 216.69 281.16 195.46 313.09 204.48 320.7 206.61 321.24 228.78 287.37" style="fill:#455a64"></polygon><polygon points="199.51 315.3 222.66 282.65 220.29 281.16 211.72 278.64 199.51 296.97 199.51 315.3" style="fill:#263238"></polygon><path d="M225.51,286c.11.08-4.49,7-10.26,15.38s-10.56,15.18-10.67,15.1,4.48-7,10.26-15.38S225.39,285.93,225.51,286Z" style="fill:#263238"></path><path d="M219.45,281.36c.11.08-4.26,6.48-9.77,14.3s-10.06,14.08-10.17,14,4.26-6.48,9.77-14.3S219.34,281.29,219.45,281.36Z" style="fill:#455a64"></path><path d="M216.28,288.83A13,13,0,0,1,215,291c-.86,1.29-2.08,3.06-3.45,5s-2.64,3.67-3.57,4.91a12.64,12.64,0,0,1-1.59,1.94,12.35,12.35,0,0,1,1.31-2.15c.86-1.29,2.08-3.06,3.45-5s2.63-3.65,3.56-4.89A12.74,12.74,0,0,1,216.28,288.83Z" style="fill:#fff"></path><path d="M222.12,294.84a42.6,42.6,0,0,1-6.56,9.47,49,49,0,0,1,3.19-4.79A47.38,47.38,0,0,1,222.12,294.84Z" style="fill:#fff"></path><path d="M223.84,292.59c.11.08,0,.35-.15.6s-.44.39-.55.3,0-.35.16-.6S223.73,292.51,223.84,292.59Z" style="fill:#fff"></path><path d="M165.67,272.56s-8.06-3.19-12.62-2.35-16,13.06-17.88,17-8.76,27.12-9.64,32.16.3,13.91,4.31,16.17c3.69,2.07,18.3,7,26.72,6l.25,0a11.47,11.47,0,0,0,10.09-11.31V283.14Z" style="fill:#263238"></path><path d="M160.58,271.49a7.53,7.53,0,0,1-.75,1.21c-.52.76-1.28,1.84-2.25,3.17-2,2.64-4.73,6.22-8,10-1.65,1.86-3.11,3.81-5,5a6,6,0,0,1-3,1c-1,.07-1.86.14-2.69.14a7.89,7.89,0,0,1-3.83-.76,4.62,4.62,0,0,1-.86-.64c-.17-.17-.25-.27-.24-.28a12.29,12.29,0,0,0,1.19.74,8,8,0,0,0,3.74.59c.81,0,1.7-.11,2.66-.2a5.53,5.53,0,0,0,2.78-.94c1.78-1.15,3.24-3.08,4.89-4.95,3.25-3.79,6.07-7.33,8.08-9.91,1-1.24,1.75-2.28,2.37-3.07A7.51,7.51,0,0,1,160.58,271.49Z" style="fill:#455a64"></path><path d="M167.21,328.2a13,13,0,0,1-1.68-.1c-1.08-.09-2.64-.26-4.56-.49-3.84-.47-9.13-1.24-14.94-2.35s-11-2.36-14.75-3.35c-1.87-.49-3.37-.91-4.41-1.23a11.94,11.94,0,0,1-1.6-.53,10.78,10.78,0,0,1,1.65.35l4.45,1.07c3.76.91,9,2.09,14.76,3.2s11.06,1.94,14.89,2.49l4.53.65A9.67,9.67,0,0,1,167.21,328.2Z" style="fill:#455a64"></path><path d="M147.9,287.71a8.76,8.76,0,0,1,.13,1.47c.06.94.1,2.31.11,4a126.26,126.26,0,0,1-.62,13.21,124.48,124.48,0,0,1-2,13.08c-.35,1.65-.66,3-.9,3.9a8.61,8.61,0,0,1-.42,1.41,7.56,7.56,0,0,1,.23-1.45c.19-1,.44-2.34.74-3.93.61-3.32,1.34-7.93,1.86-13.06s.7-9.78.76-13.16c0-1.62,0-3,.05-4A7.05,7.05,0,0,1,147.9,287.71Z" style="fill:#455a64"></path><path d="M152.17,272.47a18.81,18.81,0,0,1-1.66-3.33,1.12,1.12,0,0,1,.71-1.67,12.25,12.25,0,0,1,6.88-1.36,2.89,2.89,0,0,1,1.39.41,2.43,2.43,0,0,1,.73,2.56c-.19.92-.64,1.78-.75,2.71l-1.28-.3c.17-1.05.34-2.09.52-3.13a1.48,1.48,0,0,0-.08-1c-.28-.46-.95-.48-1.5-.45-1.31.09-2.61.23-3.91.42-.64.09-1.38.28-1.59.87a1.58,1.58,0,0,0,.23,1.22,11.34,11.34,0,0,0,2,2.84" style="fill:#263238"></path><path d="M141.78,289.87l-2.47.16a1,1,0,0,0-.15.48c-.07.48-.13.95-.2,1.43a3.93,3.93,0,0,0,0,1.41,1.38,1.38,0,0,0,.88,1,1.42,1.42,0,0,0,1.54-.83,4.71,4.71,0,0,0,.42-1.82C141.82,291.13,141.78,290.6,141.78,289.87Z" style="fill:#455a64"></path><path d="M146.9,309.69a12.79,12.79,0,0,1-2.6-.26c-1.6-.24-3.81-.64-6.21-1.19s-4.56-1.15-6.11-1.64a12.77,12.77,0,0,1-2.46-.9,14.83,14.83,0,0,1,2.56.57c1.56.39,3.72.94,6.12,1.49s4.58,1,6.16,1.33A14.34,14.34,0,0,1,146.9,309.69Z" style="fill:#455a64"></path><path d="M143.74,297.81a2.47,2.47,0,0,0-2.24-.06,5.39,5.39,0,0,0-1.89,1.71,11.78,11.78,0,0,0-1.08-2,3,3,0,0,0-1.67-1.09,1.83,1.83,0,0,0-2,1.28,4.42,4.42,0,0,0,.7,3.35,24.06,24.06,0,0,0,2.47,3.88,1,1,0,0,0,1.36.16,27.61,27.61,0,0,0,4.25-4.12,3.58,3.58,0,0,0,.87-1.58A1.61,1.61,0,0,0,143.74,297.81Z" style="fill:#2E597B"></path><path d="M164.94,315.3a7.82,7.82,0,0,1-1.63,2.25,8.07,8.07,0,0,1-2,1.92,7.85,7.85,0,0,1,1.63-2.24A8,8,0,0,1,164.94,315.3Z" style="fill:#fff"></path><path d="M165.67,272.56s-8.06-3.19-12.62-2.35-16,13.06-17.88,17-8.76,27.12-9.64,32.16.3,13.91,4.31,16.17c3.69,2.07,18.3,7,26.72,6l.25,0a11.47,11.47,0,0,0,10.09-11.31V283.14Z" style="fill:#263238"></path><path d="M160.58,271.49a7.53,7.53,0,0,1-.75,1.21c-.52.76-1.28,1.84-2.25,3.17-2,2.64-4.73,6.22-8,10-1.65,1.86-3.11,3.81-5,5a6,6,0,0,1-3,1c-1,.07-1.86.14-2.69.14a7.89,7.89,0,0,1-3.83-.76,4.62,4.62,0,0,1-.86-.64c-.17-.17-.25-.27-.24-.28a12.29,12.29,0,0,0,1.19.74,8,8,0,0,0,3.74.59c.81,0,1.7-.11,2.66-.2a5.53,5.53,0,0,0,2.78-.94c1.78-1.15,3.24-3.08,4.89-4.95,3.25-3.79,6.07-7.33,8.08-9.91,1-1.24,1.75-2.28,2.37-3.07A7.51,7.51,0,0,1,160.58,271.49Z" style="fill:#455a64"></path><path d="M167.21,328.2a13,13,0,0,1-1.68-.1c-1.08-.09-2.64-.26-4.56-.49-3.84-.47-9.13-1.24-14.94-2.35s-11-2.36-14.75-3.35c-1.87-.49-3.37-.91-4.41-1.23a11.94,11.94,0,0,1-1.6-.53,10.78,10.78,0,0,1,1.65.35l4.45,1.07c3.76.91,9,2.09,14.76,3.2s11.06,1.94,14.89,2.49l4.53.65A9.67,9.67,0,0,1,167.21,328.2Z" style="fill:#455a64"></path><path d="M147.9,287.71a8.76,8.76,0,0,1,.13,1.47c.06.94.1,2.31.11,4a126.26,126.26,0,0,1-.62,13.21,124.48,124.48,0,0,1-2,13.08c-.35,1.65-.66,3-.9,3.9a8.61,8.61,0,0,1-.42,1.41,7.56,7.56,0,0,1,.23-1.45c.19-1,.44-2.34.74-3.93.61-3.32,1.34-7.93,1.86-13.06s.7-9.78.76-13.16c0-1.62,0-3,.05-4A7.05,7.05,0,0,1,147.9,287.71Z" style="fill:#455a64"></path><path d="M152.17,272.47a18.81,18.81,0,0,1-1.66-3.33,1.12,1.12,0,0,1,.71-1.67,12.25,12.25,0,0,1,6.88-1.36,2.89,2.89,0,0,1,1.39.41,2.43,2.43,0,0,1,.73,2.56c-.19.92-.64,1.78-.75,2.71l-1.28-.3c.17-1.05.34-2.09.52-3.13a1.48,1.48,0,0,0-.08-1c-.28-.46-.95-.48-1.5-.45-1.31.09-2.61.23-3.91.42-.64.09-1.38.28-1.59.87a1.58,1.58,0,0,0,.23,1.22,11.34,11.34,0,0,0,2,2.84" style="fill:#263238"></path><path d="M141.78,289.87l-2.47.16a1,1,0,0,0-.15.48c-.07.48-.13.95-.2,1.43a3.93,3.93,0,0,0,0,1.41,1.38,1.38,0,0,0,.88,1,1.42,1.42,0,0,0,1.54-.83,4.71,4.71,0,0,0,.42-1.82C141.82,291.13,141.78,290.6,141.78,289.87Z" style="fill:#455a64"></path><path d="M146.9,309.69a12.79,12.79,0,0,1-2.6-.26c-1.6-.24-3.81-.64-6.21-1.19s-4.56-1.15-6.11-1.64a12.77,12.77,0,0,1-2.46-.9,14.83,14.83,0,0,1,2.56.57c1.56.39,3.72.94,6.12,1.49s4.58,1,6.16,1.33A14.34,14.34,0,0,1,146.9,309.69Z" style="fill:#455a64"></path><path d="M143.74,297.81a2.47,2.47,0,0,0-2.24-.06,5.39,5.39,0,0,0-1.89,1.71,11.78,11.78,0,0,0-1.08-2,3,3,0,0,0-1.67-1.09,1.83,1.83,0,0,0-2,1.28,4.42,4.42,0,0,0,.7,3.35,24.06,24.06,0,0,0,2.47,3.88,1,1,0,0,0,1.36.16,27.61,27.61,0,0,0,4.25-4.12,3.58,3.58,0,0,0,.87-1.58A1.61,1.61,0,0,0,143.74,297.81Z" style="fill:#2E597B"></path><path d="M216.87,308.88s.47-1.43,0-2.14a2.33,2.33,0,0,0-2.7-.51c-.9.4-2.44,1.37-2.33,2a3.64,3.64,0,0,0,.31,1s-3.49-1.42-4.29-1.6-2.65.64-2.12,2l.19.36a1.91,1.91,0,0,0-2.15-.16,2,2,0,0,0-.43,2.82s-1.85-.08-1.9,1.5.37,1.57.37,1.57a1.89,1.89,0,0,0-.76,2.3c.21.87,5.47,4,7.17,3.54s2-1.57,2.65-1.77a5.12,5.12,0,0,0,2.34-1.53c.37-.66,1.79-1.32,1.93-2.23s.82-2.1.88-3.38a21.83,21.83,0,0,1,.42-3Z" style="fill:#ffbf9d"></path><path d="M216.87,308.88a4.41,4.41,0,0,1-.37.75v0a29.2,29.2,0,0,0-.4,3.48,23.42,23.42,0,0,1-.74,2.61l-.07.36a1.34,1.34,0,0,1-.15.41,2.83,2.83,0,0,1-.54.65,10.73,10.73,0,0,0-1.19,1.13,3.48,3.48,0,0,1-1.42,1.21,5.43,5.43,0,0,1-.88.41,1.5,1.5,0,0,0-.38.18,2.34,2.34,0,0,0-.33.31,4.68,4.68,0,0,1-1.69,1.22,2.16,2.16,0,0,1-1.11.2,4.89,4.89,0,0,1-1.09-.21,16.35,16.35,0,0,1-4-2,9,9,0,0,1-1-.7,4.47,4.47,0,0,1-.45-.43,1.08,1.08,0,0,1-.29-.64,2.15,2.15,0,0,1,.93-2.35l.11.47a.5.5,0,0,1-.38-.24,2.37,2.37,0,0,1-.24-1.17,2.44,2.44,0,0,1,.17-1.14,1.65,1.65,0,0,1,.88-.81,2.83,2.83,0,0,1,1.11-.2l-.2.38a2.29,2.29,0,0,1,.16-2.89,1.91,1.91,0,0,1,1.39-.58,2.48,2.48,0,0,1,1.37.49l-.35.29c-.07-.12-.13-.24-.19-.36h0a1.36,1.36,0,0,1,.11-1.27,2.21,2.21,0,0,1,.91-.76,2.52,2.52,0,0,1,1.12-.25,4.26,4.26,0,0,1,1,.28c1.27.46,2.43.94,3.51,1.38l-.23.26a4.46,4.46,0,0,1-.33-1.06.76.76,0,0,1,.2-.6,2.25,2.25,0,0,1,.36-.39,8.27,8.27,0,0,1,1.58-1,2.65,2.65,0,0,1,2.92.18,1.36,1.36,0,0,1,.43,1,3,3,0,0,1-.08.8,1.93,1.93,0,0,1-.2.63s0-.22.1-.64a3.86,3.86,0,0,0,0-.78,1.22,1.22,0,0,0-.4-.89,2.45,2.45,0,0,0-2.65-.06,7.26,7.26,0,0,0-1.5,1c-.21.19-.46.49-.43.68a3.64,3.64,0,0,0,.31.95l.21.43-.45-.17c-1.08-.43-2.25-.89-3.51-1.33a3.84,3.84,0,0,0-.92-.25,2.17,2.17,0,0,0-.91.22,1.78,1.78,0,0,0-.72.6.91.91,0,0,0-.07.85v0l.2.36.48.89-.83-.6a1.94,1.94,0,0,0-1.09-.38,1.46,1.46,0,0,0-1,.45,1.82,1.82,0,0,0-.11,2.27l.28.38h-.49a1.63,1.63,0,0,0-1.52.73,1.93,1.93,0,0,0-.13.92,2.21,2.21,0,0,0,.16.91l0,0,0,0,0,0v.06h0l0-.17h0l.1.47a1.68,1.68,0,0,0-.66,1.82.61.61,0,0,0,.19.4,3.52,3.52,0,0,0,.39.38,10.16,10.16,0,0,0,.91.67,16.36,16.36,0,0,0,3.9,1.95,4,4,0,0,0,1,.2,1.71,1.71,0,0,0,.91-.16,4.15,4.15,0,0,0,1.55-1.1,3.33,3.33,0,0,1,.39-.35,1.49,1.49,0,0,1,.48-.23,5.28,5.28,0,0,0,.84-.38A3.19,3.19,0,0,0,213.1,318a10.26,10.26,0,0,1,1.27-1.17,2.75,2.75,0,0,0,.48-.56,2.38,2.38,0,0,0,.2-.68,25.78,25.78,0,0,0,.8-2.57,20.73,20.73,0,0,1,.55-3.46h0A3.91,3.91,0,0,1,216.87,308.88Z" style="fill:#ff9a6c"></path><path d="M204.57,318.48c-.07.11-1-.31-1.79-1.2s-1.17-1.81-1.05-1.87.64.71,1.42,1.53S204.64,318.36,204.57,318.48Z" style="fill:#ff9a6c"></path><path d="M207.51,316.06a10.68,10.68,0,0,1-2.12-1.69c-1.11-1-2-1.77-1.95-1.88a9.94,9.94,0,0,1,4.07,3.57Z" style="fill:#ff9a6c"></path><path d="M211.72,313.51a9.71,9.71,0,0,1-3.12-1.41,10.31,10.31,0,0,1-2.75-2.05,15.11,15.11,0,0,1,3,1.62A16,16,0,0,1,211.72,313.51Z" style="fill:#ff9a6c"></path><path d="M215.55,310c.06.12-.76.53-1.8.28s-1.58-1-1.47-1.06.7.38,1.59.58S215.51,309.86,215.55,310Z" style="fill:#ff9a6c"></path><path d="M198.71,334.36a4.08,4.08,0,1,0,4.08-4.25A4.17,4.17,0,0,0,198.71,334.36Z" style="fill:#2E597B"></path><path d="M204,330.23s-.23-.13-.7-.21a3.92,3.92,0,0,0-2,.17,4.18,4.18,0,0,0-2.25,2,4.6,4.6,0,0,0,1.85,6.42,4.17,4.17,0,0,0,3,.23,3.92,3.92,0,0,0,1.74-1c.32-.35.43-.59.41-.6a6,6,0,0,1-2.26,1.23,3.84,3.84,0,0,1-2.66-.31,4.18,4.18,0,0,1-2-2.52,4.23,4.23,0,0,1,.37-3.18,4,4,0,0,1,1.92-1.85,4.38,4.38,0,0,1,1.85-.33C203.76,330.25,204,330.28,204,330.23Z" style="fill:#263238"></path><path d="M203.28,338.41a3.22,3.22,0,0,1,.39.86c.22.57.51,1.41.83,2.46a55.53,55.53,0,0,1,1.81,8.35,53.94,53.94,0,0,1,.47,8.53c0,1.1-.08,2-.15,2.59a3.87,3.87,0,0,1-.14.94c-.08,0,0-1.35-.06-3.53a70.07,70.07,0,0,0-.61-8.46,72.49,72.49,0,0,0-1.66-8.33C203.61,339.72,203.2,338.43,203.28,338.41Z" style="fill:#263238"></path><path d="M171.68,292s4.83,23.29,7.79,24.94c6.6,3.68,19.44,7.13,22,6.25a7.78,7.78,0,0,0,3.56-2.2l-14.39-14.42-2.21-17.75Z" style="fill:#ffbf9d"></path><path d="M187.15,273.48c-.81-2.69-1.77-5.54-4-7.24L181.36,265c-4.07-1.08-8.55,1-11,4.46s-3.13,7.87-2.69,12.06a49,49,0,0,0,3.43,12.14,82.08,82.08,0,0,0,20.35-5C190,283.58,188.66,278.51,187.15,273.48Z" style="fill:#ebebeb"></path><path d="M185.57,290.86a5.76,5.76,0,0,1-1.08.41c-.7.24-1.74.54-3,.86A54.71,54.71,0,0,1,171,293.61h-.18l0-.16c-.14-.49-.33-1-.44-1.53a70.53,70.53,0,0,1-1.61-11.54c-.1-1.49-.15-2.7-.17-3.53a7,7,0,0,1,0-1.3,8.28,8.28,0,0,1,.16,1.29c.08.91.18,2.09.31,3.51a84.28,84.28,0,0,0,1.73,11.46c.11.52.29,1,.43,1.5l-.22-.16a62.75,62.75,0,0,0,10.43-1.32c1.31-.28,2.35-.53,3.07-.72A5.46,5.46,0,0,1,185.57,290.86Z" style="fill:#263238"></path></g></svg>
